<mxfile host="Electron" modified="2024-09-28T09:18:48.273Z" agent="Mozilla/5.0 (Windows NT 10.0; Win64; x64) AppleWebKit/537.36 (KHTML, like Gecko) draw.io/24.6.4 Chrome/124.0.6367.207 Electron/30.0.6 Safari/537.36" etag="iXJ749h06L03CkEZ57-5" version="24.6.4" type="device">
  <diagram name="第 1 页" id="0Xf5-WbQuykDUrxCoj9X">
    <mxGraphModel dx="1628" dy="2125" grid="1" gridSize="10" guides="1" tooltips="1" connect="1" arrows="1" fold="1" page="1" pageScale="1" pageWidth="827" pageHeight="1169" math="0" shadow="0">
      <root>
        <mxCell id="0" />
        <mxCell id="1" parent="0" />
        <mxCell id="cuH9VREGBPQFMum01eds-71" value="&lt;b&gt;&lt;font style=&quot;font-size: 20px;&quot;&gt;静态策略分析&lt;/font&gt;&lt;/b&gt;&lt;b&gt;&lt;font style=&quot;font-size: 20px;&quot;&gt;-使用随机卡池&lt;/font&gt;&lt;/b&gt;" style="rounded=1;whiteSpace=wrap;html=1;verticalAlign=top;dashed=1;container=0;" vertex="1" parent="1">
          <mxGeometry x="1654" y="770" width="780" height="570" as="geometry" />
        </mxCell>
        <mxCell id="cuH9VREGBPQFMum01eds-70" value="&lt;b&gt;&lt;font style=&quot;font-size: 20px;&quot;&gt;动态&lt;/font&gt;&lt;/b&gt;&lt;b&gt;&lt;font style=&quot;font-size: 20px;&quot;&gt;Solver图表-使用队列卡池&lt;/font&gt;&lt;/b&gt;" style="rounded=1;whiteSpace=wrap;html=1;verticalAlign=top;dashed=1;container=0;" vertex="1" parent="1">
          <mxGeometry x="2460" y="760" width="780" height="570" as="geometry" />
        </mxCell>
        <mxCell id="cuH9VREGBPQFMum01eds-8" value="&lt;b&gt;&lt;font style=&quot;font-size: 20px;&quot;&gt;静态&lt;/font&gt;&lt;/b&gt;&lt;b&gt;&lt;font style=&quot;font-size: 20px;&quot;&gt;Solver图表-使用随机卡池-获取静态策略&lt;/font&gt;&lt;/b&gt;" style="rounded=1;whiteSpace=wrap;html=1;verticalAlign=top;dashed=1;container=0;" vertex="1" parent="1">
          <mxGeometry x="1640" y="170" width="1510" height="570" as="geometry" />
        </mxCell>
        <mxCell id="cuH9VREGBPQFMum01eds-51" value="&lt;div&gt;&lt;b&gt;&lt;font style=&quot;font-size: 20px;&quot;&gt;标准GTO&lt;/font&gt;&lt;/b&gt;&lt;/div&gt;" style="rounded=1;whiteSpace=wrap;html=1;verticalAlign=top;dashed=1;container=0;" vertex="1" parent="1">
          <mxGeometry x="2450" y="230" width="670" height="480" as="geometry" />
        </mxCell>
        <mxCell id="Zoe6LWstfdoIp6qeAD0j-38" value="&lt;b&gt;&lt;font style=&quot;font-size: 20px;&quot;&gt;Structure&lt;/font&gt;&lt;/b&gt;" style="rounded=1;whiteSpace=wrap;html=1;verticalAlign=top;dashed=1;" parent="1" vertex="1">
          <mxGeometry width="820" height="820" as="geometry" />
        </mxCell>
        <mxCell id="Zoe6LWstfdoIp6qeAD0j-1" value="game&lt;div&gt;游戏逻辑&lt;/div&gt;" style="rounded=1;whiteSpace=wrap;html=1;verticalAlign=top;dashed=1;" parent="1" vertex="1">
          <mxGeometry x="40" y="50" width="360" height="670" as="geometry" />
        </mxCell>
        <mxCell id="Zoe6LWstfdoIp6qeAD0j-18" value="rules" style="rounded=1;whiteSpace=wrap;html=1;verticalAlign=top;dashed=1;" parent="1" vertex="1">
          <mxGeometry x="60" y="160" width="320" height="230" as="geometry" />
        </mxCell>
        <mxCell id="Zoe6LWstfdoIp6qeAD0j-2" value="strategy" style="rounded=1;whiteSpace=wrap;html=1;verticalAlign=top;dashed=1;" parent="1" vertex="1">
          <mxGeometry x="60" y="400" width="320" height="290" as="geometry" />
        </mxCell>
        <mxCell id="Zoe6LWstfdoIp6qeAD0j-3" value="dealer strategy&lt;div&gt;固定策略&lt;/div&gt;" style="rounded=1;whiteSpace=wrap;html=1;fillColor=#d5e8d4;strokeColor=#82b366;" parent="1" vertex="1">
          <mxGeometry x="160" y="430" width="120" height="60" as="geometry" />
        </mxCell>
        <mxCell id="Zoe6LWstfdoIp6qeAD0j-4" value="player strategy&lt;div&gt;自定义策略&lt;/div&gt;" style="rounded=1;whiteSpace=wrap;html=1;verticalAlign=top;" parent="1" vertex="1">
          <mxGeometry x="95" y="510" width="250" height="150" as="geometry" />
        </mxCell>
        <mxCell id="Zoe6LWstfdoIp6qeAD0j-6" style="edgeStyle=orthogonalEdgeStyle;rounded=0;orthogonalLoop=1;jettySize=auto;html=1;exitX=0.5;exitY=0;exitDx=0;exitDy=0;entryX=0.5;entryY=1;entryDx=0;entryDy=0;" parent="1" source="Zoe6LWstfdoIp6qeAD0j-5" target="Zoe6LWstfdoIp6qeAD0j-4" edge="1">
          <mxGeometry relative="1" as="geometry" />
        </mxCell>
        <mxCell id="Zoe6LWstfdoIp6qeAD0j-5" value="外部配置" style="rounded=1;whiteSpace=wrap;html=1;" parent="1" vertex="1">
          <mxGeometry x="160" y="740" width="120" height="60" as="geometry" />
        </mxCell>
        <mxCell id="Zoe6LWstfdoIp6qeAD0j-9" value="solver" style="rounded=1;whiteSpace=wrap;html=1;dashed=1;verticalAlign=top;" parent="1" vertex="1">
          <mxGeometry x="440" y="50" width="350" height="280" as="geometry" />
        </mxCell>
        <mxCell id="Zoe6LWstfdoIp6qeAD0j-10" value="抽牌概率分布" style="rounded=1;whiteSpace=wrap;html=1;fillColor=#d5e8d4;strokeColor=#82b366;" parent="1" vertex="1">
          <mxGeometry x="480" y="100" width="120" height="60" as="geometry" />
        </mxCell>
        <mxCell id="Zoe6LWstfdoIp6qeAD0j-11" value="点数概率分布" style="rounded=1;whiteSpace=wrap;html=1;fillColor=#d5e8d4;strokeColor=#82b366;" parent="1" vertex="1">
          <mxGeometry x="640" y="100" width="120" height="60" as="geometry" />
        </mxCell>
        <mxCell id="Zoe6LWstfdoIp6qeAD0j-12" value="输赢规则" style="rounded=1;whiteSpace=wrap;html=1;fillColor=#d5e8d4;strokeColor=#82b366;" parent="1" vertex="1">
          <mxGeometry x="230" y="250" width="120" height="60" as="geometry" />
        </mxCell>
        <mxCell id="Zoe6LWstfdoIp6qeAD0j-21" style="edgeStyle=orthogonalEdgeStyle;rounded=0;orthogonalLoop=1;jettySize=auto;html=1;exitX=1;exitY=0.5;exitDx=0;exitDy=0;entryX=0;entryY=0.25;entryDx=0;entryDy=0;" parent="1" source="Zoe6LWstfdoIp6qeAD0j-13" target="Zoe6LWstfdoIp6qeAD0j-9" edge="1">
          <mxGeometry relative="1" as="geometry" />
        </mxCell>
        <mxCell id="Zoe6LWstfdoIp6qeAD0j-13" value="牌库" style="rounded=1;whiteSpace=wrap;html=1;" parent="1" vertex="1">
          <mxGeometry x="160" y="90" width="120" height="60" as="geometry" />
        </mxCell>
        <mxCell id="Zoe6LWstfdoIp6qeAD0j-14" value="手牌点数计算规则" style="rounded=1;whiteSpace=wrap;html=1;fillColor=#d5e8d4;strokeColor=#82b366;" parent="1" vertex="1">
          <mxGeometry x="90" y="180" width="120" height="60" as="geometry" />
        </mxCell>
        <mxCell id="Zoe6LWstfdoIp6qeAD0j-16" value="21点规则" style="rounded=1;whiteSpace=wrap;html=1;" parent="1" vertex="1">
          <mxGeometry x="230" y="180" width="120" height="60" as="geometry" />
        </mxCell>
        <mxCell id="Zoe6LWstfdoIp6qeAD0j-17" value="加注规则" style="rounded=1;whiteSpace=wrap;html=1;" parent="1" vertex="1">
          <mxGeometry x="90" y="250" width="120" height="60" as="geometry" />
        </mxCell>
        <mxCell id="Zoe6LWstfdoIp6qeAD0j-19" value="静态策略&lt;div&gt;根据手牌点数和庄家明牌点数&lt;/div&gt;" style="rounded=1;whiteSpace=wrap;html=1;" parent="1" vertex="1">
          <mxGeometry x="110" y="555" width="100" height="90" as="geometry" />
        </mxCell>
        <mxCell id="Zoe6LWstfdoIp6qeAD0j-20" value="动态策略&lt;div&gt;根据牌库点数分布、手牌点数和庄家明牌点数&lt;/div&gt;" style="rounded=1;whiteSpace=wrap;html=1;" parent="1" vertex="1">
          <mxGeometry x="230" y="555" width="100" height="90" as="geometry" />
        </mxCell>
        <mxCell id="Zoe6LWstfdoIp6qeAD0j-22" value="player actions" style="rounded=1;whiteSpace=wrap;html=1;fillColor=#d5e8d4;strokeColor=#82b366;" parent="1" vertex="1">
          <mxGeometry x="230" y="320" width="120" height="60" as="geometry" />
        </mxCell>
        <mxCell id="Zoe6LWstfdoIp6qeAD0j-23" value="player action 期望" style="rounded=1;whiteSpace=wrap;html=1;fillColor=#d5e8d4;strokeColor=#82b366;" parent="1" vertex="1">
          <mxGeometry x="480" y="190" width="120" height="60" as="geometry" />
        </mxCell>
        <mxCell id="Zoe6LWstfdoIp6qeAD0j-24" value="起手牌期望" style="rounded=1;whiteSpace=wrap;html=1;fillColor=#d5e8d4;strokeColor=#82b366;" parent="1" vertex="1">
          <mxGeometry x="640" y="190" width="120" height="60" as="geometry" />
        </mxCell>
        <mxCell id="Zoe6LWstfdoIp6qeAD0j-25" value="&lt;b&gt;&lt;font style=&quot;font-size: 20px;&quot;&gt;roadmap&lt;/font&gt;&lt;/b&gt;" style="rounded=1;whiteSpace=wrap;html=1;verticalAlign=top;" parent="1" vertex="1">
          <mxGeometry y="-160" width="800" height="140" as="geometry" />
        </mxCell>
        <mxCell id="Zoe6LWstfdoIp6qeAD0j-31" style="edgeStyle=orthogonalEdgeStyle;rounded=0;orthogonalLoop=1;jettySize=auto;html=1;exitX=1;exitY=0.5;exitDx=0;exitDy=0;entryX=0;entryY=0.5;entryDx=0;entryDy=0;" parent="1" source="Zoe6LWstfdoIp6qeAD0j-26" target="Zoe6LWstfdoIp6qeAD0j-27" edge="1">
          <mxGeometry relative="1" as="geometry" />
        </mxCell>
        <mxCell id="Zoe6LWstfdoIp6qeAD0j-26" value="游戏逻辑（被动）" style="rounded=0;whiteSpace=wrap;html=1;fillColor=#d5e8d4;strokeColor=#82b366;" parent="1" vertex="1">
          <mxGeometry x="20" y="-120" width="120" height="60" as="geometry" />
        </mxCell>
        <mxCell id="Zoe6LWstfdoIp6qeAD0j-32" style="edgeStyle=orthogonalEdgeStyle;rounded=0;orthogonalLoop=1;jettySize=auto;html=1;exitX=1;exitY=0.5;exitDx=0;exitDy=0;entryX=0;entryY=0.5;entryDx=0;entryDy=0;" parent="1" source="Zoe6LWstfdoIp6qeAD0j-27" target="Zoe6LWstfdoIp6qeAD0j-28" edge="1">
          <mxGeometry relative="1" as="geometry" />
        </mxCell>
        <mxCell id="Zoe6LWstfdoIp6qeAD0j-27" value="概率计算/期望计算" style="rounded=0;whiteSpace=wrap;html=1;fillColor=#dae8fc;strokeColor=#6c8ebf;" parent="1" vertex="1">
          <mxGeometry x="185" y="-120" width="120" height="60" as="geometry" />
        </mxCell>
        <mxCell id="Zoe6LWstfdoIp6qeAD0j-33" style="edgeStyle=orthogonalEdgeStyle;rounded=0;orthogonalLoop=1;jettySize=auto;html=1;entryX=0;entryY=0.5;entryDx=0;entryDy=0;" parent="1" source="Zoe6LWstfdoIp6qeAD0j-28" target="Zoe6LWstfdoIp6qeAD0j-29" edge="1">
          <mxGeometry relative="1" as="geometry" />
        </mxCell>
        <mxCell id="Zoe6LWstfdoIp6qeAD0j-28" value="策略制定" style="rounded=0;whiteSpace=wrap;html=1;" parent="1" vertex="1">
          <mxGeometry x="353.5" y="-120" width="120" height="60" as="geometry" />
        </mxCell>
        <mxCell id="Zoe6LWstfdoIp6qeAD0j-34" style="edgeStyle=orthogonalEdgeStyle;rounded=0;orthogonalLoop=1;jettySize=auto;html=1;entryX=0;entryY=0.5;entryDx=0;entryDy=0;" parent="1" source="Zoe6LWstfdoIp6qeAD0j-29" target="Zoe6LWstfdoIp6qeAD0j-30" edge="1">
          <mxGeometry relative="1" as="geometry" />
        </mxCell>
        <mxCell id="Zoe6LWstfdoIp6qeAD0j-29" value="游戏逻辑（主动）" style="rounded=0;whiteSpace=wrap;html=1;fillColor=#fff2cc;strokeColor=#d6b656;" parent="1" vertex="1">
          <mxGeometry x="515" y="-120" width="120" height="60" as="geometry" />
        </mxCell>
        <mxCell id="Zoe6LWstfdoIp6qeAD0j-30" value="仿真验证" style="rounded=0;whiteSpace=wrap;html=1;fillColor=#f8cecc;strokeColor=#b85450;" parent="1" vertex="1">
          <mxGeometry x="670" y="-120" width="120" height="60" as="geometry" />
        </mxCell>
        <mxCell id="Zoe6LWstfdoIp6qeAD0j-36" value="&lt;h1 style=&quot;margin-top: 0px;&quot;&gt;需求明细&lt;/h1&gt;&lt;p&gt;game-rules&lt;/p&gt;&lt;p&gt;手牌点数计算规则：2点至10点的牌以牌面的点数计算，J、Q、K 每张为10点。A可记为1点或11点，若玩家会因A而爆牌则A可算为1点。当一手牌中的A算为11点时，这手牌便称为“软牌”（soft hand），因为除非玩者再拿另一张牌，否则不会出现爆牌。&lt;/p&gt;&lt;p&gt;&lt;br&gt;&lt;/p&gt;&lt;p&gt;加注规则：规定加注的上下限与最小因数（比如下限2，上限10，最小因数2，那么加注额度集合为{2,4,6,8,10}）&lt;/p&gt;&lt;p&gt;&lt;br&gt;&lt;/p&gt;&lt;p&gt;21点规则&lt;/p&gt;&lt;p&gt;两张牌点数相加为21（一张A再加一张价值10点的牌）称为“黑杰克”（black jack），拥有这副牌的玩家即自动成为赢家（除非庄家也同时持有黑杰克，这种点数相同的情形就称为 push）。拥有黑杰克的玩家可赢得下注筹码的1.5倍。部分的赌场仅付给1.2倍的金额；但通常是在仅使用一副牌游玩的赌局中。&lt;br&gt;&lt;/p&gt;&lt;p&gt;&lt;br&gt;&lt;/p&gt;&lt;p&gt;输赢规则&lt;/p&gt;&lt;p&gt;超过21点的玩家称为爆牌（Bust）。若玩家爆牌在先即为输，就算随后庄家爆牌也是如此。若玩家和庄家均不超过21点，则比较点数大小；若玩家点数大于庄家，则获得胜利，赢得下注筹码的1倍；若玩家点数小于庄家，则失去所有下注筹码；若玩家和庄家拥有同样点数，这样的状态称为“push”，玩家和庄家皆不算输赢。&lt;br&gt;&lt;/p&gt;&lt;p&gt;&lt;br&gt;&lt;/p&gt;&lt;p&gt;保险规则&lt;/p&gt;&lt;p&gt;在美式的黑杰克游戏中，若庄家的明牌是A或价值10的牌，庄家会确认他的暗牌是否会形成黑杰克。这项确认会在所有玩家选择之前进行，但进行前会先询问玩家是否需要“保险”（insurance，在明牌是 A 的情况下）。若庄家的牌为黑杰克（blackjack），则所有的玩家即时算输，将损失第一笔赌注筹码，除非玩者本身也是黑杰克，形成同点数的 push 状况。&lt;/p&gt;&lt;p&gt;&lt;br&gt;&lt;/p&gt;&lt;p&gt;player action&lt;/p&gt;&lt;p&gt;1.Hit: Take another card.&lt;span style=&quot;background-color: initial;&quot;&gt;&lt;br&gt;&lt;/span&gt;&lt;span style=&quot;background-color: initial;&quot;&gt;2.Stand: Take no more cards; also known as &quot;stand pat&quot;, &quot;sit&quot;, &quot;stick&quot;, or &quot;stay&quot;.&lt;br&gt;3.&lt;/span&gt;&lt;span style=&quot;background-color: initial;&quot;&gt;Double down: Increase the initial bet by 100% and take exactly one more card.&lt;br&gt;4.&lt;/span&gt;&lt;span style=&quot;background-color: initial;&quot;&gt;Split: Create two hands from a starting hand where both cards are the same value. Each new hand gets a second card resulting in two starting hands. This requires an additional bet on the second hand. The two hands are played out independently, and the wager on each hand is won or lost independently.&lt;/span&gt;&lt;/p&gt;&lt;p&gt;&lt;br&gt;&lt;/p&gt;&lt;p&gt;strategy-dealer strategy&lt;/p&gt;&lt;p&gt;庄家在取得17点之前必须要牌，因规则不同会有软17点或硬17点才停牌的具体区分。&lt;strike&gt;且庄家如果拿牌五张而没有爆牌则视为庄家胜利。&lt;/strike&gt;&lt;br&gt;&lt;/p&gt;" style="text;html=1;whiteSpace=wrap;overflow=hidden;rounded=0;" parent="1" vertex="1">
          <mxGeometry x="827" width="500" height="830" as="geometry" />
        </mxCell>
        <mxCell id="Zoe6LWstfdoIp6qeAD0j-37" value="保险规则" style="rounded=1;whiteSpace=wrap;html=1;" parent="1" vertex="1">
          <mxGeometry x="90" y="320" width="120" height="60" as="geometry" />
        </mxCell>
        <mxCell id="Zoe6LWstfdoIp6qeAD0j-39" value="&lt;h1 style=&quot;margin-top: 0px;&quot;&gt;游戏流程&lt;/h1&gt;&lt;p&gt;1.发牌，庄闲个发两张，庄家第一张牌为明牌，第二张牌为暗牌。&lt;/p&gt;&lt;p&gt;2.如果庄家明牌是A。荷官会询问玩家是否购买保险。&lt;/p&gt;&lt;p&gt;3.如果庄家是&lt;span style=&quot;background-color: initial;&quot;&gt;black jack时，如果闲家不是&lt;/span&gt;&lt;span style=&quot;background-color: initial;&quot;&gt;black jack，则直接失败；如果闲家是&lt;/span&gt;&lt;span style=&quot;background-color: initial;&quot;&gt;black jack，则push&lt;/span&gt;&lt;span style=&quot;background-color: initial;&quot;&gt;；结束游戏。&lt;/span&gt;&lt;/p&gt;&lt;p&gt;&lt;span style=&quot;background-color: initial;&quot;&gt;4.闲家操作：hit、stand、double down、split等。若玩家点数大于等于21点，则自动停止操作。&lt;/span&gt;&lt;/p&gt;&lt;p&gt;&lt;span style=&quot;background-color: initial;&quot;&gt;5.当所有闲家停止操作后，庄家亮出明牌；若庄家点数不足17，则持续hit，直到点数大于等于17。&lt;/span&gt;&lt;/p&gt;&lt;p&gt;&lt;span style=&quot;background-color: initial;&quot;&gt;6.比点数大小：1.若闲家是black jack，则获得下注筹码的1.5倍；2.若闲家bust，则直接判输；3.若庄家bust，则未bust的闲家获胜；4.若庄家未bust，则比较点数大小，点数大于庄家的闲家赢得下注筹码的1倍，点数小于庄家的闲家失去下注筹码，点数与庄家相同的闲家push。&lt;/span&gt;&lt;/p&gt;" style="text;html=1;whiteSpace=wrap;overflow=hidden;rounded=0;" parent="1" vertex="1">
          <mxGeometry x="450" y="360" width="360" height="380" as="geometry" />
        </mxCell>
        <mxCell id="arHHOXSYV5D0Y9RjJXxl-7" style="edgeStyle=orthogonalEdgeStyle;rounded=0;orthogonalLoop=1;jettySize=auto;html=1;exitX=0.25;exitY=1;exitDx=0;exitDy=0;" parent="1" source="Zoe6LWstfdoIp6qeAD0j-40" target="Zoe6LWstfdoIp6qeAD0j-42" edge="1">
          <mxGeometry relative="1" as="geometry" />
        </mxCell>
        <mxCell id="arHHOXSYV5D0Y9RjJXxl-8" style="edgeStyle=orthogonalEdgeStyle;rounded=0;orthogonalLoop=1;jettySize=auto;html=1;exitX=0.75;exitY=1;exitDx=0;exitDy=0;entryX=0.25;entryY=0;entryDx=0;entryDy=0;" parent="1" source="Zoe6LWstfdoIp6qeAD0j-40" target="Zoe6LWstfdoIp6qeAD0j-41" edge="1">
          <mxGeometry relative="1" as="geometry" />
        </mxCell>
        <mxCell id="arHHOXSYV5D0Y9RjJXxl-105" style="edgeStyle=orthogonalEdgeStyle;rounded=0;orthogonalLoop=1;jettySize=auto;html=1;" parent="1" source="Zoe6LWstfdoIp6qeAD0j-40" target="arHHOXSYV5D0Y9RjJXxl-61" edge="1">
          <mxGeometry relative="1" as="geometry" />
        </mxCell>
        <mxCell id="Zoe6LWstfdoIp6qeAD0j-40" value="&lt;p style=&quot;margin:0px;margin-top:4px;text-align:center;&quot;&gt;&lt;b&gt;ECard - 包含JQK&lt;/b&gt;&lt;/p&gt;&lt;hr size=&quot;1&quot; style=&quot;border-style:solid;&quot;&gt;&lt;p style=&quot;margin: 0px 0px 0px 4px;&quot;&gt;+ Ace&lt;/p&gt;&lt;p style=&quot;margin: 0px 0px 0px 4px;&quot;&gt;+ Two&lt;/p&gt;&lt;p style=&quot;margin: 0px 0px 0px 4px;&quot;&gt;...&lt;/p&gt;&lt;p style=&quot;margin: 0px 0px 0px 4px;&quot;&gt;+ Ten&lt;/p&gt;&lt;p style=&quot;margin: 0px 0px 0px 4px;&quot;&gt;+ Jack&lt;/p&gt;&lt;p style=&quot;margin: 0px 0px 0px 4px;&quot;&gt;+ Queen&lt;/p&gt;&lt;p style=&quot;margin: 0px 0px 0px 4px;&quot;&gt;+ King&lt;/p&gt;&lt;hr style=&quot;border-style: solid;&quot; size=&quot;1&quot;&gt;&lt;p style=&quot;margin: 0px 0px 0px 4px;&quot;&gt;+ toEValue():&amp;nbsp;&lt;span style=&quot;background-color: initial;&quot;&gt;EValue&lt;/span&gt;&lt;/p&gt;" style="verticalAlign=top;align=left;overflow=fill;html=1;whiteSpace=wrap;fillColor=#d5e8d4;strokeColor=#82b366;" parent="1" vertex="1">
          <mxGeometry x="630" y="850" width="160" height="160" as="geometry" />
        </mxCell>
        <mxCell id="arHHOXSYV5D0Y9RjJXxl-27" style="edgeStyle=orthogonalEdgeStyle;rounded=0;orthogonalLoop=1;jettySize=auto;html=1;exitX=0.5;exitY=1;exitDx=0;exitDy=0;entryX=0.25;entryY=0;entryDx=0;entryDy=0;" parent="1" source="Zoe6LWstfdoIp6qeAD0j-41" target="arHHOXSYV5D0Y9RjJXxl-59" edge="1">
          <mxGeometry relative="1" as="geometry" />
        </mxCell>
        <mxCell id="Zoe6LWstfdoIp6qeAD0j-41" value="&lt;p style=&quot;margin:0px;margin-top:4px;text-align:center;&quot;&gt;&lt;b&gt;SQueueDeck&lt;/b&gt;&lt;/p&gt;&lt;p style=&quot;margin:0px;margin-top:4px;text-align:center;&quot;&gt;&lt;b&gt;队列卡池-按照shuffle顺序发牌&lt;/b&gt;&lt;/p&gt;&lt;hr size=&quot;1&quot; style=&quot;border-style:solid;&quot;&gt;&lt;p style=&quot;margin:0px;margin-left:4px;&quot;&gt;&lt;span style=&quot;background-color: initial;&quot;&gt;+ num_of_deck: u8 - 牌库中有几副牌&lt;/span&gt;&lt;br&gt;&lt;/p&gt;&lt;p style=&quot;margin:0px;margin-left:4px;&quot;&gt;+ cards_list: Vec&amp;lt;&lt;span style=&quot;background-color: initial;&quot;&gt;ECard&amp;gt; - 使用打乱的队列代表一副牌&lt;/span&gt;&lt;/p&gt;&lt;p style=&quot;margin:0px;margin-left:4px;&quot;&gt;&lt;span style=&quot;background-color: initial;&quot;&gt;+ cards_list_ptr: u16 - 使用指针指向当前Deck的最上面一张牌&lt;/span&gt;&lt;/p&gt;&lt;p style=&quot;margin:0px;margin-left:4px;&quot;&gt;+ card_num:HashMap&amp;lt;&lt;span style=&quot;background-color: initial;&quot;&gt;ECard, u16&lt;/span&gt;&lt;span style=&quot;background-color: initial;&quot;&gt;&amp;gt;&amp;nbsp;&lt;/span&gt;&lt;span style=&quot;background-color: initial;&quot;&gt;- 卡池中每种牌面的数量（用于计算概率）&lt;/span&gt;&lt;/p&gt;&lt;p style=&quot;margin:0px;margin-left:4px;&quot;&gt;&lt;span style=&quot;background-color: initial;&quot;&gt;+ card_sum:u16 - 卡池中的卡牌总数&lt;/span&gt;&lt;span style=&quot;background-color: initial;&quot;&gt;（用于计算概率）&lt;/span&gt;&lt;/p&gt;&lt;p style=&quot;margin:0px;margin-left:4px;&quot;&gt;&lt;strike&gt;&lt;span style=&quot;background-color: initial;&quot;&gt;+ &lt;/span&gt;&lt;span style=&quot;background-color: initial;&quot;&gt;probability_map:&lt;/span&gt;HashMap&amp;lt;&lt;span style=&quot;background-color: initial;&quot;&gt;ECard, float&lt;/span&gt;&lt;span style=&quot;background-color: initial;&quot;&gt;&amp;gt;&amp;nbsp;&lt;/span&gt;&lt;span style=&quot;background-color: initial;&quot;&gt;-&amp;nbsp;&amp;nbsp;&lt;/span&gt;&lt;span style=&quot;background-color: initial;&quot;&gt;抽取到某张牌的概率&lt;/span&gt;&lt;span style=&quot;background-color: initial;&quot;&gt;（&lt;/span&gt;&lt;span style=&quot;background-color: initial;&quot;&gt;Solver使用&lt;/span&gt;&lt;span style=&quot;background-color: initial;&quot;&gt;）&lt;/span&gt;&lt;/strike&gt;&lt;/p&gt;&lt;hr size=&quot;1&quot; style=&quot;border-style:solid;&quot;&gt;&lt;p style=&quot;margin:0px;margin-left:4px;&quot;&gt;+ new(&lt;span style=&quot;background-color: initial;&quot;&gt;EDeckStrategy,&amp;nbsp;&lt;/span&gt;&lt;span style=&quot;background-color: initial;&quot;&gt;num_of_deck&lt;/span&gt;&lt;span style=&quot;background-color: initial;&quot;&gt;): SDeck&lt;/span&gt;&lt;/p&gt;&lt;p style=&quot;margin:0px;margin-left:4px;&quot;&gt;+ default(): Self&lt;span style=&quot;background-color: initial;&quot;&gt;&lt;br&gt;&lt;/span&gt;&lt;/p&gt;&lt;p style=&quot;margin:0px;margin-left:4px;&quot;&gt;&lt;span style=&quot;background-color: initial;&quot;&gt;+ shuffle(&amp;amp;Self) - 重新洗牌 并且重置相关变量&lt;/span&gt;&lt;/p&gt;&lt;p style=&quot;margin:0px;margin-left:4px;&quot;&gt;&lt;span style=&quot;background-color: initial;&quot;&gt;+ draw(&amp;amp;mut Self): ECard - 抽一张牌 并且返回&lt;/span&gt;&lt;/p&gt;&lt;p style=&quot;margin:0px;margin-left:4px;&quot;&gt;&lt;span style=&quot;background-color: initial;&quot;&gt;+ draw_specific(&amp;amp;mut Self, ECard): Option&amp;lt;ECard&amp;gt; -&amp;nbsp;&lt;/span&gt;&lt;span style=&quot;background-color: initial;&quot;&gt;抽取特定卡牌&lt;/span&gt;&lt;span style=&quot;background-color: initial;&quot;&gt;（&lt;/span&gt;&lt;span style=&quot;background-color: initial;&quot;&gt;Solver使用&lt;/span&gt;&lt;span style=&quot;background-color: initial;&quot;&gt;）&lt;/span&gt;&lt;/p&gt;&lt;p style=&quot;margin:0px;margin-left:4px;&quot;&gt;&lt;strike&gt;&lt;span style=&quot;background-color: initial;&quot;&gt;+ return_card(&amp;amp;mut Self, ECard) - 将特定卡牌洗回卡池（&lt;/span&gt;&lt;span style=&quot;background-color: initial;&quot;&gt;Solver使用&lt;/span&gt;&lt;span style=&quot;background-color: initial;&quot;&gt;）&lt;/span&gt;&lt;span style=&quot;background-color: initial;&quot;&gt;&lt;br&gt;&lt;/span&gt;&lt;/strike&gt;&lt;/p&gt;&lt;p style=&quot;margin:0px;margin-left:4px;&quot;&gt;&lt;strike&gt;&lt;span style=&quot;background-color: initial;&quot;&gt;+ update_probability(&amp;amp;mut Self) - 更新概率&lt;/span&gt;&lt;span style=&quot;background-color: initial;&quot;&gt;&lt;br&gt;&lt;/span&gt;&lt;/strike&gt;&lt;/p&gt;&lt;p style=&quot;margin:0px;margin-left:4px;&quot;&gt;&lt;strike&gt;&lt;span style=&quot;background-color: initial;&quot;&gt;+ probability(&amp;amp;Self, &amp;amp;ECard): float -&amp;nbsp;&lt;/span&gt;&lt;span style=&quot;background-color: initial;&quot;&gt;抽取到某张牌的概率&lt;/span&gt;&lt;span style=&quot;background-color: initial;&quot;&gt;（&lt;/span&gt;&lt;span style=&quot;background-color: initial;&quot;&gt;Solver使用&lt;/span&gt;&lt;span style=&quot;background-color: initial;&quot;&gt;）&lt;/span&gt;&lt;/strike&gt;&lt;/p&gt;&lt;p style=&quot;margin:0px;margin-left:4px;&quot;&gt;&lt;span style=&quot;background-color: initial;&quot;&gt;+ get_&lt;/span&gt;&lt;span style=&quot;background-color: initial;&quot;&gt;probability_map&lt;/span&gt;&lt;span style=&quot;background-color: initial;&quot;&gt;(&amp;amp;Self)&lt;/span&gt;&lt;span style=&quot;background-color: initial;&quot;&gt;:&lt;/span&gt;&lt;span style=&quot;background-color: initial;&quot;&gt;HashMap&amp;lt;&lt;/span&gt;&lt;span style=&quot;background-color: initial;&quot;&gt;ECard, float&lt;/span&gt;&lt;span style=&quot;background-color: initial;&quot;&gt;&amp;gt;&amp;nbsp;&lt;/span&gt;&lt;span style=&quot;background-color: initial;&quot;&gt;-&amp;nbsp;&amp;nbsp;&lt;/span&gt;&lt;span style=&quot;background-color: initial;&quot;&gt;抽取到某张牌的概率&lt;/span&gt;&lt;span style=&quot;background-color: initial;&quot;&gt;（&lt;/span&gt;&lt;span style=&quot;background-color: initial;&quot;&gt;Solver使用&lt;/span&gt;&lt;span style=&quot;background-color: initial;&quot;&gt;）&lt;/span&gt;&lt;/p&gt;" style="verticalAlign=top;align=left;overflow=fill;html=1;whiteSpace=wrap;fillColor=#dae8fc;strokeColor=#6c8ebf;" parent="1" vertex="1">
          <mxGeometry x="695" y="1200" width="460" height="300" as="geometry" />
        </mxCell>
        <mxCell id="arHHOXSYV5D0Y9RjJXxl-17" style="edgeStyle=orthogonalEdgeStyle;rounded=0;orthogonalLoop=1;jettySize=auto;html=1;entryX=0.25;entryY=0;entryDx=0;entryDy=0;exitX=0.783;exitY=1.006;exitDx=0;exitDy=0;exitPerimeter=0;" parent="1" source="Zoe6LWstfdoIp6qeAD0j-45" target="arHHOXSYV5D0Y9RjJXxl-9" edge="1">
          <mxGeometry relative="1" as="geometry">
            <mxPoint x="270" y="1170" as="sourcePoint" />
          </mxGeometry>
        </mxCell>
        <mxCell id="arHHOXSYV5D0Y9RjJXxl-18" style="edgeStyle=orthogonalEdgeStyle;rounded=0;orthogonalLoop=1;jettySize=auto;html=1;exitX=0.213;exitY=1.006;exitDx=0;exitDy=0;entryX=0.5;entryY=0;entryDx=0;entryDy=0;exitPerimeter=0;" parent="1" source="Zoe6LWstfdoIp6qeAD0j-45" target="arHHOXSYV5D0Y9RjJXxl-13" edge="1">
          <mxGeometry relative="1" as="geometry" />
        </mxCell>
        <mxCell id="Zoe6LWstfdoIp6qeAD0j-42" value="SHand（手牌）" style="swimlane;fontStyle=1;align=center;verticalAlign=top;childLayout=stackLayout;horizontal=1;startSize=26;horizontalStack=0;resizeParent=1;resizeParentMax=0;resizeLast=0;collapsible=1;marginBottom=0;whiteSpace=wrap;html=1;fillColor=#d5e8d4;strokeColor=#82b366;" parent="1" vertex="1">
          <mxGeometry x="230" y="1110" width="250" height="200" as="geometry" />
        </mxCell>
        <mxCell id="Zoe6LWstfdoIp6qeAD0j-43" value="+ cards: Vec&amp;lt;ECard&amp;gt;&lt;div&gt;+ value: EValue&lt;/div&gt;" style="text;strokeColor=none;fillColor=none;align=left;verticalAlign=top;spacingLeft=4;spacingRight=4;overflow=hidden;rotatable=0;points=[[0,0.5],[1,0.5]];portConstraint=eastwest;whiteSpace=wrap;html=1;" parent="Zoe6LWstfdoIp6qeAD0j-42" vertex="1">
          <mxGeometry y="26" width="250" height="34" as="geometry" />
        </mxCell>
        <mxCell id="Zoe6LWstfdoIp6qeAD0j-44" value="" style="line;strokeWidth=1;fillColor=none;align=left;verticalAlign=middle;spacingTop=-1;spacingLeft=3;spacingRight=3;rotatable=0;labelPosition=right;points=[];portConstraint=eastwest;strokeColor=inherit;" parent="Zoe6LWstfdoIp6qeAD0j-42" vertex="1">
          <mxGeometry y="60" width="250" height="8" as="geometry" />
        </mxCell>
        <mxCell id="Zoe6LWstfdoIp6qeAD0j-45" value="&lt;div&gt;+ new(): Self&lt;/div&gt;+ draw(&amp;amp;mut self, ECard) - 抽牌 并且更新value&lt;div&gt;+ reset(&amp;amp;Self)&lt;br&gt;&lt;div&gt;&lt;strike&gt;+ update(&amp;amp;Self) - 更新value&lt;/strike&gt;&lt;/div&gt;&lt;div&gt;+ value(&amp;amp;Self): EValue - 返回value&lt;/div&gt;&lt;div&gt;&lt;strike&gt;&lt;span style=&quot;background-color: initial;&quot;&gt;+ return_card(&amp;amp;mut Self) - 将最后一张卡牌洗回卡池（&lt;/span&gt;&lt;span style=&quot;background-color: initial;&quot;&gt;Solver使用&lt;/span&gt;&lt;span style=&quot;background-color: initial;&quot;&gt;）&lt;/span&gt;&lt;/strike&gt;&lt;br&gt;&lt;/div&gt;&lt;/div&gt;" style="text;strokeColor=none;fillColor=none;align=left;verticalAlign=top;spacingLeft=4;spacingRight=4;overflow=hidden;rotatable=0;points=[[0,0.5],[1,0.5]];portConstraint=eastwest;whiteSpace=wrap;html=1;" parent="Zoe6LWstfdoIp6qeAD0j-42" vertex="1">
          <mxGeometry y="68" width="250" height="132" as="geometry" />
        </mxCell>
        <mxCell id="arHHOXSYV5D0Y9RjJXxl-6" style="edgeStyle=orthogonalEdgeStyle;rounded=0;orthogonalLoop=1;jettySize=auto;html=1;exitX=1;exitY=0.5;exitDx=0;exitDy=0;entryX=0;entryY=0.5;entryDx=0;entryDy=0;" parent="1" source="arHHOXSYV5D0Y9RjJXxl-3" target="arHHOXSYV5D0Y9RjJXxl-106" edge="1">
          <mxGeometry relative="1" as="geometry" />
        </mxCell>
        <mxCell id="arHHOXSYV5D0Y9RjJXxl-26" style="edgeStyle=orthogonalEdgeStyle;rounded=0;orthogonalLoop=1;jettySize=auto;html=1;exitX=1;exitY=0.75;exitDx=0;exitDy=0;entryX=0.25;entryY=0;entryDx=0;entryDy=0;" parent="1" source="arHHOXSYV5D0Y9RjJXxl-3" target="Zoe6LWstfdoIp6qeAD0j-42" edge="1">
          <mxGeometry relative="1" as="geometry" />
        </mxCell>
        <mxCell id="arHHOXSYV5D0Y9RjJXxl-3" value="&lt;p style=&quot;margin:0px;margin-top:4px;text-align:center;&quot;&gt;&lt;b&gt;EValue&lt;/b&gt;&lt;/p&gt;&lt;hr size=&quot;1&quot; style=&quot;border-style:solid;&quot;&gt;&lt;p style=&quot;margin: 0px 0px 0px 4px;&quot;&gt;+ H2&lt;/p&gt;&lt;p style=&quot;margin: 0px 0px 0px 4px;&quot;&gt;+ H3&lt;/p&gt;&lt;p style=&quot;margin: 0px 0px 0px 4px;&quot;&gt;....&lt;/p&gt;&lt;p style=&quot;margin: 0px 0px 0px 4px;&quot;&gt;+ H10&lt;/p&gt;&lt;p style=&quot;margin: 0px 0px 0px 4px;&quot;&gt;+ H11&lt;/p&gt;&lt;p style=&quot;margin: 0px 0px 0px 4px;&quot;&gt;+ H21&lt;/p&gt;&lt;p style=&quot;margin: 0px 0px 0px 4px;&quot;&gt;+ Bust - 大于等于22&lt;/p&gt;&lt;p style=&quot;margin: 0px 0px 0px 4px;&quot;&gt;+ S11 软11点&lt;/p&gt;&lt;p style=&quot;margin: 0px 0px 0px 4px;&quot;&gt;...&lt;/p&gt;&lt;p style=&quot;margin: 0px 0px 0px 4px;&quot;&gt;+ S21 软21点&lt;/p&gt;&lt;hr style=&quot;border-style: solid;&quot; size=&quot;1&quot;&gt;&lt;p style=&quot;margin: 0px 0px 0px 4px;&quot;&gt;+ toU8(): u8&lt;/p&gt;&lt;p style=&quot;margin: 0px 0px 0px 4px;&quot;&gt;+ compare(EValue):&amp;nbsp;&lt;/p&gt;&lt;p style=&quot;margin: 0px 0px 0px 4px;&quot;&gt;+ add_value(&amp;amp;Self, &amp;amp;EValue) : Self&lt;/p&gt;&lt;p style=&quot;margin: 0px 0px 0px 4px;&quot;&gt;+ add_card(&amp;amp;Self, &amp;amp;ECard) : Self&lt;/p&gt;&lt;p style=&quot;margin: 0px 0px 0px 4px;&quot;&gt;+&amp;nbsp;&lt;span style=&quot;background-color: initial;&quot;&gt;to_point():u8 - 转换为数字&lt;/span&gt;&lt;/p&gt;&lt;p style=&quot;margin: 0px 0px 0px 4px;&quot;&gt;&lt;br&gt;&lt;/p&gt;" style="verticalAlign=top;align=left;overflow=fill;html=1;whiteSpace=wrap;fillColor=#d5e8d4;strokeColor=#82b366;" parent="1" vertex="1">
          <mxGeometry x="50" y="830" width="210" height="270" as="geometry" />
        </mxCell>
        <mxCell id="arHHOXSYV5D0Y9RjJXxl-28" style="edgeStyle=orthogonalEdgeStyle;rounded=0;orthogonalLoop=1;jettySize=auto;html=1;" parent="1" source="arHHOXSYV5D0Y9RjJXxl-9" target="arHHOXSYV5D0Y9RjJXxl-21" edge="1">
          <mxGeometry relative="1" as="geometry" />
        </mxCell>
        <mxCell id="arHHOXSYV5D0Y9RjJXxl-9" value="SPlayerHand（闲家）&lt;div&gt;玩家手牌&lt;/div&gt;" style="swimlane;fontStyle=1;align=center;verticalAlign=top;childLayout=stackLayout;horizontal=1;startSize=40;horizontalStack=0;resizeParent=1;resizeParentMax=0;resizeLast=0;collapsible=1;marginBottom=0;whiteSpace=wrap;html=1;fillColor=#d5e8d4;strokeColor=#82b366;" parent="1" vertex="1">
          <mxGeometry x="380" y="1350" width="290" height="380" as="geometry" />
        </mxCell>
        <mxCell id="arHHOXSYV5D0Y9RjJXxl-10" value="+ hand: SHand&lt;div&gt;&lt;span style=&quot;background-color: initial;&quot;&gt;+ bet: usize - 玩家本轮下注&lt;/span&gt;&lt;/div&gt;&lt;div&gt;&lt;span style=&quot;background-color: initial;&quot;&gt;+ betting_box: usize - 底池金额&lt;/span&gt;&lt;/div&gt;" style="text;strokeColor=none;fillColor=none;align=left;verticalAlign=top;spacingLeft=4;spacingRight=4;overflow=hidden;rotatable=0;points=[[0,0.5],[1,0.5]];portConstraint=eastwest;whiteSpace=wrap;html=1;" parent="arHHOXSYV5D0Y9RjJXxl-9" vertex="1">
          <mxGeometry y="40" width="290" height="70" as="geometry" />
        </mxCell>
        <mxCell id="arHHOXSYV5D0Y9RjJXxl-11" value="" style="line;strokeWidth=1;fillColor=none;align=left;verticalAlign=middle;spacingTop=-1;spacingLeft=3;spacingRight=3;rotatable=0;labelPosition=right;points=[];portConstraint=eastwest;strokeColor=inherit;" parent="arHHOXSYV5D0Y9RjJXxl-9" vertex="1">
          <mxGeometry y="110" width="290" height="8" as="geometry" />
        </mxCell>
        <mxCell id="arHHOXSYV5D0Y9RjJXxl-12" value="&lt;div&gt;&lt;span style=&quot;background-color: initial;&quot;&gt;+ new(): Self&lt;/span&gt;&lt;br&gt;&lt;/div&gt;&lt;div&gt;+ reset(&amp;amp;Self) - 清空手牌&lt;br&gt;&lt;/div&gt;&lt;div&gt;+ value(&amp;amp;Self) : EValue&lt;/div&gt;&lt;div&gt;+ draw(&amp;amp;mut Self, ECard) - 获得一张牌&lt;/div&gt;&lt;div&gt;&lt;strike&gt;&lt;span style=&quot;background-color: initial;&quot;&gt;+ return_card(&amp;amp;mut Self) - 将最后一张卡牌洗回卡池（&lt;/span&gt;&lt;span style=&quot;background-color: initial;&quot;&gt;Solver使用&lt;/span&gt;&lt;span style=&quot;background-color: initial;&quot;&gt;）&lt;/span&gt;&lt;/strike&gt;&lt;br&gt;&lt;/div&gt;&lt;div&gt;&lt;strike&gt;+ bet(&amp;amp;mut Self, amount)&lt;br&gt;&lt;/strike&gt;&lt;/div&gt;&lt;div&gt;&lt;strike&gt;+ split(&amp;amp;mut Self)&lt;br&gt;&lt;/strike&gt;&lt;/div&gt;&lt;div&gt;&lt;strike&gt;+ dobledown(&amp;amp;mut Self)&lt;br&gt;&lt;/strike&gt;&lt;/div&gt;&lt;div&gt;&lt;strike&gt;+ hit(&amp;amp;mut Self)&lt;br&gt;&lt;/strike&gt;&lt;/div&gt;&lt;div&gt;&lt;strike&gt;+ stand(&amp;amp;mut Self)&lt;br&gt;&lt;/strike&gt;&lt;/div&gt;&lt;div&gt;&lt;strike&gt;+ win(&amp;amp;mut Self, usize) - 赢得usize数量的筹码&lt;/strike&gt;&lt;/div&gt;&lt;div&gt;+ to_point():u8 - 转换为数字 用于比较大小 闲家bust记为0&lt;strike&gt;&lt;br&gt;&lt;/strike&gt;&lt;/div&gt;&lt;div&gt;+ bet(usize)&lt;/div&gt;&lt;div&gt;+ get_bet():usize&lt;/div&gt;" style="text;strokeColor=none;fillColor=none;align=left;verticalAlign=top;spacingLeft=4;spacingRight=4;overflow=hidden;rotatable=0;points=[[0,0.5],[1,0.5]];portConstraint=eastwest;whiteSpace=wrap;html=1;" parent="arHHOXSYV5D0Y9RjJXxl-9" vertex="1">
          <mxGeometry y="118" width="290" height="262" as="geometry" />
        </mxCell>
        <mxCell id="arHHOXSYV5D0Y9RjJXxl-29" style="edgeStyle=orthogonalEdgeStyle;rounded=0;orthogonalLoop=1;jettySize=auto;html=1;entryX=0.25;entryY=0;entryDx=0;entryDy=0;exitX=0.446;exitY=1.006;exitDx=0;exitDy=0;exitPerimeter=0;" parent="1" source="arHHOXSYV5D0Y9RjJXxl-16" target="arHHOXSYV5D0Y9RjJXxl-21" edge="1">
          <mxGeometry relative="1" as="geometry" />
        </mxCell>
        <mxCell id="arHHOXSYV5D0Y9RjJXxl-13" value="SDealerHand（庄家）&lt;div&gt;庄家手牌&lt;/div&gt;" style="swimlane;fontStyle=1;align=center;verticalAlign=top;childLayout=stackLayout;horizontal=1;startSize=40;horizontalStack=0;resizeParent=1;resizeParentMax=0;resizeLast=0;collapsible=1;marginBottom=0;whiteSpace=wrap;html=1;fillColor=#d5e8d4;strokeColor=#82b366;" parent="1" vertex="1">
          <mxGeometry x="60" y="1540" width="245" height="200" as="geometry" />
        </mxCell>
        <mxCell id="arHHOXSYV5D0Y9RjJXxl-14" value="+ hand: SHand" style="text;strokeColor=none;fillColor=none;align=left;verticalAlign=top;spacingLeft=4;spacingRight=4;overflow=hidden;rotatable=0;points=[[0,0.5],[1,0.5]];portConstraint=eastwest;whiteSpace=wrap;html=1;" parent="arHHOXSYV5D0Y9RjJXxl-13" vertex="1">
          <mxGeometry y="40" width="245" height="20" as="geometry" />
        </mxCell>
        <mxCell id="arHHOXSYV5D0Y9RjJXxl-15" value="" style="line;strokeWidth=1;fillColor=none;align=left;verticalAlign=middle;spacingTop=-1;spacingLeft=3;spacingRight=3;rotatable=0;labelPosition=right;points=[];portConstraint=eastwest;strokeColor=inherit;" parent="arHHOXSYV5D0Y9RjJXxl-13" vertex="1">
          <mxGeometry y="60" width="245" height="8" as="geometry" />
        </mxCell>
        <mxCell id="arHHOXSYV5D0Y9RjJXxl-16" value="&lt;div&gt;&lt;span style=&quot;background-color: initial;&quot;&gt;+ new(): Self&lt;/span&gt;&lt;br&gt;&lt;/div&gt;&lt;div&gt;+ reset(&amp;amp;Self) - 清空手牌&lt;br&gt;&lt;/div&gt;&lt;div&gt;+ value(&amp;amp;Self) : EValue&lt;/div&gt;&lt;div&gt;+ draw(&amp;amp;mut Self, ECard) - 获得一张牌&lt;br&gt;&lt;/div&gt;&lt;div&gt;&lt;strike&gt;&lt;span style=&quot;background-color: initial;&quot;&gt;+ return_card(&amp;amp;mut Self) - 将最后一张卡牌洗回卡池（&lt;/span&gt;&lt;span style=&quot;background-color: initial;&quot;&gt;Solver使用&lt;/span&gt;&lt;span style=&quot;background-color: initial;&quot;&gt;）&lt;/span&gt;&lt;/strike&gt;&lt;/div&gt;&lt;div&gt;+ to_point():u8 - 转换为数字 用于比较大小 庄家bust记为1&lt;strike&gt;&lt;span style=&quot;background-color: initial;&quot;&gt;&lt;br&gt;&lt;/span&gt;&lt;/strike&gt;&lt;/div&gt;" style="text;strokeColor=none;fillColor=none;align=left;verticalAlign=top;spacingLeft=4;spacingRight=4;overflow=hidden;rotatable=0;points=[[0,0.5],[1,0.5]];portConstraint=eastwest;whiteSpace=wrap;html=1;" parent="arHHOXSYV5D0Y9RjJXxl-13" vertex="1">
          <mxGeometry y="68" width="245" height="132" as="geometry" />
        </mxCell>
        <mxCell id="arHHOXSYV5D0Y9RjJXxl-47" style="edgeStyle=orthogonalEdgeStyle;rounded=0;orthogonalLoop=1;jettySize=auto;html=1;exitX=1;exitY=0.75;exitDx=0;exitDy=0;entryX=0.5;entryY=0;entryDx=0;entryDy=0;" parent="1" source="arHHOXSYV5D0Y9RjJXxl-21" target="arHHOXSYV5D0Y9RjJXxl-91" edge="1">
          <mxGeometry relative="1" as="geometry" />
        </mxCell>
        <mxCell id="arHHOXSYV5D0Y9RjJXxl-53" style="edgeStyle=orthogonalEdgeStyle;rounded=0;orthogonalLoop=1;jettySize=auto;html=1;exitX=0;exitY=0.75;exitDx=0;exitDy=0;entryX=0.5;entryY=0;entryDx=0;entryDy=0;" parent="1" source="arHHOXSYV5D0Y9RjJXxl-21" target="arHHOXSYV5D0Y9RjJXxl-54" edge="1">
          <mxGeometry relative="1" as="geometry" />
        </mxCell>
        <mxCell id="arHHOXSYV5D0Y9RjJXxl-21" value="&lt;p style=&quot;margin:0px;margin-top:4px;text-align:center;&quot;&gt;&lt;b&gt;STable（牌桌）&lt;/b&gt;&lt;/p&gt;&lt;hr size=&quot;1&quot; style=&quot;border-style:solid;&quot;&gt;&lt;p style=&quot;margin:0px;margin-left:4px;&quot;&gt;&lt;span style=&quot;background-color: initial;&quot;&gt;+ state: ETableState - 游戏状态&lt;/span&gt;&lt;br&gt;&lt;/p&gt;&lt;p style=&quot;margin: 0px 0px 0px 4px;&quot;&gt;&lt;span style=&quot;background-color: initial;&quot;&gt;+ rule: SGameRule - 规则参数&lt;/span&gt;&lt;/p&gt;&lt;p style=&quot;margin:0px;margin-left:4px;&quot;&gt;+ dealer_hand: SDealerHand&lt;/p&gt;&lt;p style=&quot;margin:0px;margin-left:4px;&quot;&gt;+ player_hand: Vec&amp;lt;&lt;span style=&quot;background-color: initial;&quot;&gt;SPlayerHand&amp;gt; - 默认只有一个玩家&lt;/span&gt;&lt;/p&gt;&lt;p style=&quot;margin:0px;margin-left:4px;&quot;&gt;&lt;span style=&quot;background-color: initial;&quot;&gt;+ deck: dyn TDeck&lt;/span&gt;&lt;/p&gt;&lt;hr size=&quot;1&quot; style=&quot;border-style:solid;&quot;&gt;&lt;p style=&quot;margin:0px;margin-left:4px;&quot;&gt;+ new(rule, dealer, player,&amp;nbsp;&lt;span style=&quot;background-color: initial;&quot;&gt;deck,&amp;nbsp;&lt;/span&gt;&lt;span style=&quot;background-color: initial;&quot;&gt;player_strategy&lt;/span&gt;&lt;span style=&quot;background-color: initial;&quot;&gt;): Self&lt;/span&gt;&lt;/p&gt;&lt;p style=&quot;margin:0px;margin-left:4px;&quot;&gt;+ default() : Self&lt;/p&gt;&lt;p style=&quot;margin:0px;margin-left:4px;&quot;&gt;+ run(&amp;amp;mut Self): ETableState - 推进游戏状态 直到等待用户操作&lt;/p&gt;&lt;p style=&quot;margin:0px;margin-left:4px;&quot;&gt;+ reset_play(&amp;amp;mut Self) - 重置当前牌局&lt;/p&gt;&lt;p style=&quot;margin:0px;margin-left:4px;&quot;&gt;+ shuffle(&amp;amp;mut Self) - 重新洗牌&lt;/p&gt;&lt;p style=&quot;margin:0px;margin-left:4px;&quot;&gt;&lt;span style=&quot;background-color: initial;&quot;&gt;+ get_&lt;/span&gt;&lt;span style=&quot;background-color: initial;&quot;&gt;probability_map&lt;/span&gt;&lt;span style=&quot;background-color: initial;&quot;&gt;(&amp;amp;Self)&lt;/span&gt;&lt;span style=&quot;background-color: initial;&quot;&gt;:&lt;/span&gt;&lt;span style=&quot;background-color: initial;&quot;&gt;HashMap&amp;lt;&lt;/span&gt;&lt;span style=&quot;background-color: initial;&quot;&gt;ECard, float&lt;/span&gt;&lt;span style=&quot;background-color: initial;&quot;&gt;&amp;gt;&amp;nbsp;&lt;/span&gt;&lt;span style=&quot;background-color: initial;&quot;&gt;-&amp;nbsp;&amp;nbsp;&lt;/span&gt;&lt;span style=&quot;background-color: initial;&quot;&gt;抽取到某张牌的概率&lt;/span&gt;&lt;span style=&quot;background-color: initial;&quot;&gt;（&lt;/span&gt;&lt;span style=&quot;background-color: initial;&quot;&gt;Solver使用&lt;/span&gt;&lt;span style=&quot;background-color: initial;&quot;&gt;）&lt;/span&gt;&lt;br&gt;&lt;/p&gt;&lt;p style=&quot;margin:0px;margin-left:4px;&quot;&gt;&lt;span style=&quot;background-color: initial;&quot;&gt;+ receive_player_action(EPlayerAction) - 接受玩家操作&lt;/span&gt;&lt;/p&gt;&lt;p style=&quot;margin:0px;margin-left:4px;&quot;&gt;+ get_state(): ETableState&lt;/p&gt;" style="verticalAlign=top;align=left;overflow=fill;html=1;whiteSpace=wrap;fillColor=#d5e8d4;strokeColor=#82b366;" parent="1" vertex="1">
          <mxGeometry x="555" y="1820" width="425" height="290" as="geometry" />
        </mxCell>
        <mxCell id="arHHOXSYV5D0Y9RjJXxl-31" style="edgeStyle=orthogonalEdgeStyle;rounded=0;orthogonalLoop=1;jettySize=auto;html=1;entryX=1;entryY=0.5;entryDx=0;entryDy=0;" parent="1" source="arHHOXSYV5D0Y9RjJXxl-30" target="arHHOXSYV5D0Y9RjJXxl-21" edge="1">
          <mxGeometry relative="1" as="geometry" />
        </mxCell>
        <mxCell id="arHHOXSYV5D0Y9RjJXxl-30" value="&lt;p style=&quot;margin:0px;margin-top:4px;text-align:center;&quot;&gt;&lt;b&gt;ETableState&lt;/b&gt;&lt;/p&gt;&lt;p style=&quot;margin:0px;margin-top:4px;text-align:center;&quot;&gt;&lt;b&gt;游戏状态&lt;/b&gt;&lt;/p&gt;&lt;hr size=&quot;1&quot; style=&quot;border-style:solid;&quot;&gt;&lt;p style=&quot;margin: 0px 0px 0px 4px;&quot;&gt;&lt;span style=&quot;background-color: initial;&quot;&gt;+ PlayerBet&lt;/span&gt;&lt;/p&gt;&lt;p style=&quot;margin: 0px 0px 0px 4px;&quot;&gt;&lt;span style=&quot;background-color: initial;&quot;&gt;+ DealerCheckBlackJack&lt;/span&gt;&lt;/p&gt;&lt;p style=&quot;margin: 0px 0px 0px 4px;&quot;&gt;&lt;span style=&quot;background-color: initial;&quot;&gt;+ PlayerBuyInsurance&lt;/span&gt;&lt;/p&gt;&lt;p style=&quot;margin: 0px 0px 0px 4px;&quot;&gt;&lt;span style=&quot;background-color: initial;&quot;&gt;+ PlayerSplit&lt;/span&gt;&lt;/p&gt;&lt;p style=&quot;margin: 0px 0px 0px 4px;&quot;&gt;&lt;span style=&quot;background-color: initial;&quot;&gt;+ Player&lt;/span&gt;&lt;span style=&quot;background-color: initial;&quot;&gt;DoubleDownOr&lt;/span&gt;&lt;span style=&quot;background-color: initial;&quot;&gt;HitOrStand&lt;/span&gt;&lt;/p&gt;&lt;p style=&quot;margin: 0px 0px 0px 4px;&quot;&gt;&lt;span style=&quot;background-color: initial;&quot;&gt;+ Player&lt;/span&gt;&lt;span style=&quot;background-color: initial;&quot;&gt;HitOrStand&lt;/span&gt;&lt;span style=&quot;background-color: initial;&quot;&gt;&lt;br&gt;&lt;/span&gt;&lt;/p&gt;&lt;p style=&quot;margin: 0px 0px 0px 4px;&quot;&gt;&lt;span style=&quot;background-color: initial;&quot;&gt;+ DealerHitOrStand&lt;/span&gt;&lt;/p&gt;&lt;p style=&quot;margin: 0px 0px 0px 4px;&quot;&gt;&lt;span style=&quot;background-color: initial;&quot;&gt;+ CheckResultAndReset&lt;/span&gt;&lt;/p&gt;&lt;p style=&quot;margin: 0px 0px 0px 4px;&quot;&gt;&lt;br&gt;&lt;/p&gt;" style="verticalAlign=top;align=left;overflow=fill;html=1;whiteSpace=wrap;fillColor=#d5e8d4;strokeColor=#82b366;" parent="1" vertex="1">
          <mxGeometry x="1040" y="1835" width="230" height="170" as="geometry" />
        </mxCell>
        <mxCell id="arHHOXSYV5D0Y9RjJXxl-33" value="&lt;p style=&quot;font-weight: 400; margin: 4px 0px 0px;&quot;&gt;&lt;b&gt;SGameRule&lt;/b&gt;&lt;/p&gt;&lt;p style=&quot;font-weight: 400; margin: 4px 0px 0px;&quot;&gt;&lt;b&gt;游戏规则配置参数&lt;/b&gt;&lt;/p&gt;" style="swimlane;fontStyle=1;align=center;verticalAlign=top;childLayout=stackLayout;horizontal=1;startSize=50;horizontalStack=0;resizeParent=1;resizeParentMax=0;resizeLast=0;collapsible=1;marginBottom=0;whiteSpace=wrap;html=1;fillColor=#d5e8d4;strokeColor=#82b366;" parent="1" vertex="1">
          <mxGeometry x="40" y="1820" width="480" height="200" as="geometry">
            <mxRectangle x="1030" y="1360" width="140" height="50" as="alternateBounds" />
          </mxGeometry>
        </mxCell>
        <mxCell id="arHHOXSYV5D0Y9RjJXxl-34" value="&lt;p style=&quot;margin: 0px 0px 0px 4px;&quot;&gt;&lt;span style=&quot;background-color: initial;&quot;&gt;+ blackjack_pay: float - 玩家blackjack的盈利比例 通常为1.5&lt;/span&gt;&lt;/p&gt;&lt;p style=&quot;margin: 0px 0px 0px 4px;&quot;&gt;&lt;span style=&quot;background-color: initial;&quot;&gt;+ insurance_pay: float - 玩家买保险的盈利比例 通常为2&lt;/span&gt;&lt;/p&gt;&lt;p style=&quot;margin: 0px 0px 0px 4px;&quot;&gt;&lt;span style=&quot;background-color: initial;&quot;&gt;+ bet_min: usize - 最小下注 统一为1&lt;/span&gt;&lt;/p&gt;&lt;p style=&quot;margin: 0px 0px 0px 4px;&quot;&gt;&lt;span style=&quot;background-color: initial;&quot;&gt;+ bet_max:usize - 最高下注 可选为10&lt;/span&gt;&lt;/p&gt;&lt;p style=&quot;margin: 0px 0px 0px 4px;&quot;&gt;+ bet_step:usize - 加注步长 必须是&lt;span style=&quot;background-color: initial;&quot;&gt;bet_min的倍数 以及&lt;/span&gt;&lt;span style=&quot;background-color: initial;&quot;&gt;bet_max的因数&lt;/span&gt;&lt;/p&gt;&lt;p style=&quot;margin: 0px 0px 0px 4px;&quot;&gt;&lt;span style=&quot;background-color: initial;&quot;&gt;+ insurance_max: float 保险最大值 通常为下注的一半（即0.5）&lt;/span&gt;&lt;/p&gt;&lt;p style=&quot;margin: 0px 0px 0px 4px;&quot;&gt;&lt;span style=&quot;background-color: initial;&quot;&gt;+ bet_options: Vec&amp;lt;usize&amp;gt; - 所有可选的下注集合&lt;/span&gt;&lt;/p&gt;" style="text;strokeColor=none;fillColor=none;align=left;verticalAlign=top;spacingLeft=4;spacingRight=4;overflow=hidden;rotatable=0;points=[[0,0.5],[1,0.5]];portConstraint=eastwest;whiteSpace=wrap;html=1;" parent="arHHOXSYV5D0Y9RjJXxl-33" vertex="1">
          <mxGeometry y="50" width="480" height="110" as="geometry" />
        </mxCell>
        <mxCell id="arHHOXSYV5D0Y9RjJXxl-35" value="" style="line;strokeWidth=1;fillColor=none;align=left;verticalAlign=middle;spacingTop=-1;spacingLeft=3;spacingRight=3;rotatable=0;labelPosition=right;points=[];portConstraint=eastwest;strokeColor=inherit;" parent="arHHOXSYV5D0Y9RjJXxl-33" vertex="1">
          <mxGeometry y="160" width="480" height="8" as="geometry" />
        </mxCell>
        <mxCell id="arHHOXSYV5D0Y9RjJXxl-36" value="&lt;div&gt;+ new(blackjack_pay,&amp;nbsp;&lt;span style=&quot;background-color: initial;&quot;&gt;insurance_pay,&amp;nbsp;&lt;/span&gt;&lt;span style=&quot;background-color: initial;&quot;&gt;bet_min,&lt;/span&gt;&lt;span style=&quot;background-color: initial;&quot;&gt;bet_max,&amp;nbsp;&lt;/span&gt;&lt;span style=&quot;background-color: initial;&quot;&gt;bet_step,&amp;nbsp;&lt;/span&gt;&lt;span style=&quot;background-color: initial;&quot;&gt;insurance_max&lt;/span&gt;&lt;span style=&quot;background-color: initial;&quot;&gt;):Self&lt;/span&gt;&lt;/div&gt;" style="text;strokeColor=none;fillColor=none;align=left;verticalAlign=top;spacingLeft=4;spacingRight=4;overflow=hidden;rotatable=0;points=[[0,0.5],[1,0.5]];portConstraint=eastwest;whiteSpace=wrap;html=1;" parent="arHHOXSYV5D0Y9RjJXxl-33" vertex="1">
          <mxGeometry y="168" width="480" height="32" as="geometry" />
        </mxCell>
        <mxCell id="arHHOXSYV5D0Y9RjJXxl-40" style="edgeStyle=orthogonalEdgeStyle;rounded=0;orthogonalLoop=1;jettySize=auto;html=1;entryX=0;entryY=0.5;entryDx=0;entryDy=0;" parent="1" source="arHHOXSYV5D0Y9RjJXxl-34" target="arHHOXSYV5D0Y9RjJXxl-21" edge="1">
          <mxGeometry relative="1" as="geometry" />
        </mxCell>
        <mxCell id="arHHOXSYV5D0Y9RjJXxl-42" value="SSimulationSolver（仿真求解器）&lt;div&gt;重复执行牌局&lt;/div&gt;&lt;div&gt;记录实际盈亏&lt;/div&gt;" style="swimlane;fontStyle=1;align=center;verticalAlign=top;childLayout=stackLayout;horizontal=1;startSize=60;horizontalStack=0;resizeParent=1;resizeParentMax=0;resizeLast=0;collapsible=1;marginBottom=0;whiteSpace=wrap;html=1;fillColor=#f8cecc;strokeColor=#b85450;" parent="1" vertex="1">
          <mxGeometry x="655" y="2455" width="325" height="160" as="geometry" />
        </mxCell>
        <mxCell id="arHHOXSYV5D0Y9RjJXxl-43" value="+ tabl&lt;span style=&quot;background-color: initial;&quot;&gt;e: STable&lt;/span&gt;&lt;div&gt;+&amp;nbsp;&lt;span style=&quot;background-color: initial;&quot;&gt;action:&amp;nbsp;&lt;/span&gt;&lt;span style=&quot;background-color: initial;&quot;&gt;fn(&lt;/span&gt;&lt;span style=&quot;background-color: initial;&quot;&gt;&amp;amp;STable&lt;/span&gt;&lt;span style=&quot;background-color: initial;&quot;&gt;) -&amp;gt;&amp;nbsp;&lt;/span&gt;&lt;span style=&quot;background-color: initial;&quot;&gt;EPlayerAction&lt;/span&gt;&lt;span style=&quot;background-color: initial;&quot;&gt;&amp;nbsp;- 模拟玩家&lt;/span&gt;&lt;/div&gt;" style="text;strokeColor=none;fillColor=none;align=left;verticalAlign=top;spacingLeft=4;spacingRight=4;overflow=hidden;rotatable=0;points=[[0,0.5],[1,0.5]];portConstraint=eastwest;whiteSpace=wrap;html=1;" parent="arHHOXSYV5D0Y9RjJXxl-42" vertex="1">
          <mxGeometry y="60" width="325" height="50" as="geometry" />
        </mxCell>
        <mxCell id="arHHOXSYV5D0Y9RjJXxl-44" value="" style="line;strokeWidth=1;fillColor=none;align=left;verticalAlign=middle;spacingTop=-1;spacingLeft=3;spacingRight=3;rotatable=0;labelPosition=right;points=[];portConstraint=eastwest;strokeColor=inherit;" parent="arHHOXSYV5D0Y9RjJXxl-42" vertex="1">
          <mxGeometry y="110" width="325" height="8" as="geometry" />
        </mxCell>
        <mxCell id="arHHOXSYV5D0Y9RjJXxl-45" value="&lt;div&gt;+&lt;span style=&quot;background-color: initial;&quot;&gt;&amp;nbsp;run(&amp;amp;Self) - 执行仿真&lt;/span&gt;&lt;br&gt;&lt;/div&gt;" style="text;strokeColor=none;fillColor=none;align=left;verticalAlign=top;spacingLeft=4;spacingRight=4;overflow=hidden;rotatable=0;points=[[0,0.5],[1,0.5]];portConstraint=eastwest;whiteSpace=wrap;html=1;" parent="arHHOXSYV5D0Y9RjJXxl-42" vertex="1">
          <mxGeometry y="118" width="325" height="42" as="geometry" />
        </mxCell>
        <mxCell id="arHHOXSYV5D0Y9RjJXxl-49" value="SAnalysisSolver（分析求解器）&lt;div&gt;记录牌局的状态树&lt;/div&gt;&lt;div&gt;求解概率与期望&lt;/div&gt;" style="swimlane;fontStyle=1;align=center;verticalAlign=top;childLayout=stackLayout;horizontal=1;startSize=60;horizontalStack=0;resizeParent=1;resizeParentMax=0;resizeLast=0;collapsible=1;marginBottom=0;whiteSpace=wrap;html=1;fillColor=#dae8fc;strokeColor=#6c8ebf;" parent="1" vertex="1">
          <mxGeometry x="78.75" y="2630" width="311.25" height="200" as="geometry" />
        </mxCell>
        <mxCell id="arHHOXSYV5D0Y9RjJXxl-50" value="&lt;div&gt;+ state_tree: SStateTree&lt;/div&gt;&lt;div&gt;&lt;br&gt;&lt;/div&gt;" style="text;strokeColor=none;fillColor=none;align=left;verticalAlign=top;spacingLeft=4;spacingRight=4;overflow=hidden;rotatable=0;points=[[0,0.5],[1,0.5]];portConstraint=eastwest;whiteSpace=wrap;html=1;" parent="arHHOXSYV5D0Y9RjJXxl-49" vertex="1">
          <mxGeometry y="60" width="311.25" height="50" as="geometry" />
        </mxCell>
        <mxCell id="arHHOXSYV5D0Y9RjJXxl-51" value="" style="line;strokeWidth=1;fillColor=none;align=left;verticalAlign=middle;spacingTop=-1;spacingLeft=3;spacingRight=3;rotatable=0;labelPosition=right;points=[];portConstraint=eastwest;strokeColor=inherit;" parent="arHHOXSYV5D0Y9RjJXxl-49" vertex="1">
          <mxGeometry y="110" width="311.25" height="8" as="geometry" />
        </mxCell>
        <mxCell id="arHHOXSYV5D0Y9RjJXxl-52" value="&lt;div&gt;+ new(&lt;span style=&quot;background-color: initial;&quot;&gt;fn(&lt;/span&gt;&lt;span style=&quot;background-color: initial;&quot;&gt;&amp;amp;STable&lt;/span&gt;&lt;span style=&quot;background-color: initial;&quot;&gt;) -&amp;gt;&amp;nbsp;&lt;/span&gt;Vec&amp;lt;EPlayerAction&amp;gt;):Self&lt;/div&gt;&lt;div&gt;+ run(&amp;amp;Self)&lt;/div&gt;&lt;div&gt;&lt;br&gt;&lt;/div&gt;" style="text;strokeColor=none;fillColor=none;align=left;verticalAlign=top;spacingLeft=4;spacingRight=4;overflow=hidden;rotatable=0;points=[[0,0.5],[1,0.5]];portConstraint=eastwest;whiteSpace=wrap;html=1;" parent="arHHOXSYV5D0Y9RjJXxl-49" vertex="1">
          <mxGeometry y="118" width="311.25" height="82" as="geometry" />
        </mxCell>
        <mxCell id="arHHOXSYV5D0Y9RjJXxl-71" style="edgeStyle=orthogonalEdgeStyle;rounded=0;orthogonalLoop=1;jettySize=auto;html=1;entryX=0.5;entryY=0;entryDx=0;entryDy=0;" parent="1" source="arHHOXSYV5D0Y9RjJXxl-54" target="arHHOXSYV5D0Y9RjJXxl-49" edge="1">
          <mxGeometry relative="1" as="geometry" />
        </mxCell>
        <mxCell id="arHHOXSYV5D0Y9RjJXxl-54" value="SStateTree（状态树）" style="swimlane;fontStyle=1;align=center;verticalAlign=top;childLayout=stackLayout;horizontal=1;startSize=30;horizontalStack=0;resizeParent=1;resizeParentMax=0;resizeLast=0;collapsible=1;marginBottom=0;whiteSpace=wrap;html=1;fillColor=#dae8fc;strokeColor=#6c8ebf;" parent="1" vertex="1">
          <mxGeometry x="78.75" y="2470" width="311.25" height="130" as="geometry" />
        </mxCell>
        <mxCell id="arHHOXSYV5D0Y9RjJXxl-55" value="+ tabl&lt;span style=&quot;background-color: initial;&quot;&gt;e: STable&lt;/span&gt;&lt;div&gt;+ action&lt;span style=&quot;background-color: initial;&quot;&gt;:&amp;nbsp;&lt;/span&gt;&lt;span style=&quot;background-color: initial;&quot;&gt;fn(&lt;/span&gt;&lt;span style=&quot;background-color: initial;&quot;&gt;&amp;amp;STable&lt;/span&gt;&lt;span style=&quot;background-color: initial;&quot;&gt;) -&amp;gt;&amp;nbsp;&lt;/span&gt;Vec&amp;lt;EPlayerAction&amp;gt;&lt;span style=&quot;background-color: initial;&quot;&gt;- 模拟玩家&lt;/span&gt;&lt;br&gt;&lt;div&gt;&lt;div&gt;+ children: Vec&amp;lt;SStateTree&amp;gt;&lt;span style=&quot;background-color: initial;&quot;&gt;&lt;br&gt;&lt;/span&gt;&lt;/div&gt;&lt;/div&gt;&lt;/div&gt;" style="text;strokeColor=none;fillColor=none;align=left;verticalAlign=top;spacingLeft=4;spacingRight=4;overflow=hidden;rotatable=0;points=[[0,0.5],[1,0.5]];portConstraint=eastwest;whiteSpace=wrap;html=1;" parent="arHHOXSYV5D0Y9RjJXxl-54" vertex="1">
          <mxGeometry y="30" width="311.25" height="50" as="geometry" />
        </mxCell>
        <mxCell id="arHHOXSYV5D0Y9RjJXxl-56" value="" style="line;strokeWidth=1;fillColor=none;align=left;verticalAlign=middle;spacingTop=-1;spacingLeft=3;spacingRight=3;rotatable=0;labelPosition=right;points=[];portConstraint=eastwest;strokeColor=inherit;" parent="arHHOXSYV5D0Y9RjJXxl-54" vertex="1">
          <mxGeometry y="80" width="311.25" height="8" as="geometry" />
        </mxCell>
        <mxCell id="arHHOXSYV5D0Y9RjJXxl-57" value="&lt;div&gt;+ new(EPlayerStrategy):Self&lt;/div&gt;&lt;div&gt;+&lt;span style=&quot;background-color: initial;&quot;&gt;&amp;nbsp;run(&amp;amp;Self) - 执行求解&lt;/span&gt;&lt;/div&gt;" style="text;strokeColor=none;fillColor=none;align=left;verticalAlign=top;spacingLeft=4;spacingRight=4;overflow=hidden;rotatable=0;points=[[0,0.5],[1,0.5]];portConstraint=eastwest;whiteSpace=wrap;html=1;" parent="arHHOXSYV5D0Y9RjJXxl-54" vertex="1">
          <mxGeometry y="88" width="311.25" height="42" as="geometry" />
        </mxCell>
        <mxCell id="arHHOXSYV5D0Y9RjJXxl-60" style="edgeStyle=orthogonalEdgeStyle;rounded=0;orthogonalLoop=1;jettySize=auto;html=1;exitX=0.5;exitY=1;exitDx=0;exitDy=0;entryX=0.75;entryY=0;entryDx=0;entryDy=0;" parent="1" source="arHHOXSYV5D0Y9RjJXxl-59" target="arHHOXSYV5D0Y9RjJXxl-21" edge="1">
          <mxGeometry relative="1" as="geometry" />
        </mxCell>
        <mxCell id="arHHOXSYV5D0Y9RjJXxl-59" value="&lt;p style=&quot;margin:0px;margin-top:4px;text-align:center;&quot;&gt;&lt;b&gt;TDeck&lt;/b&gt;&lt;/p&gt;&lt;hr size=&quot;1&quot; style=&quot;border-style:solid;&quot;&gt;&lt;p style=&quot;margin: 0px 0px 0px 4px;&quot;&gt;&lt;span style=&quot;background-color: initial;&quot;&gt;+ draw(&amp;amp;mut self): ECard - 抽一张牌 并且返回&lt;/span&gt;&lt;/p&gt;&lt;p style=&quot;margin: 0px 0px 0px 4px;&quot;&gt;&lt;span style=&quot;background-color: initial;&quot;&gt;+ draw_specific(&amp;amp;mut self, ECard): Option&amp;lt;ECard&amp;gt; -&amp;nbsp;&lt;/span&gt;&lt;span style=&quot;background-color: initial;&quot;&gt;抽取特定卡牌&lt;/span&gt;&lt;span style=&quot;background-color: initial;&quot;&gt;（&lt;/span&gt;&lt;span style=&quot;background-color: initial;&quot;&gt;Solver使用&lt;/span&gt;&lt;span style=&quot;background-color: initial;&quot;&gt;）&lt;/span&gt;&lt;/p&gt;&lt;p style=&quot;margin: 0px 0px 0px 4px;&quot;&gt;&lt;span style=&quot;background-color: initial;&quot;&gt;+&amp;nbsp;&lt;/span&gt;shuffle&lt;span style=&quot;background-color: initial;&quot;&gt;(&amp;amp;mut self) - 重新洗牌 并且重置相关变量&lt;/span&gt;&lt;span style=&quot;background-color: initial;&quot;&gt;&lt;br&gt;&lt;/span&gt;&lt;/p&gt;&lt;p style=&quot;margin: 0px 0px 0px 4px;&quot;&gt;&lt;span style=&quot;background-color: initial;&quot;&gt;+ get_&lt;/span&gt;&lt;span style=&quot;background-color: initial;&quot;&gt;probability_map&lt;/span&gt;&lt;span style=&quot;background-color: initial;&quot;&gt;(&amp;amp;Self)&lt;/span&gt;&lt;span style=&quot;background-color: initial;&quot;&gt;:&lt;/span&gt;&lt;span style=&quot;background-color: initial;&quot;&gt;HashMap&amp;lt;&lt;/span&gt;&lt;span style=&quot;background-color: initial;&quot;&gt;ECard, Fraction&lt;/span&gt;&lt;span style=&quot;background-color: initial;&quot;&gt;&amp;gt;&amp;nbsp;&lt;/span&gt;&lt;span style=&quot;background-color: initial;&quot;&gt;-&amp;nbsp;&amp;nbsp;&lt;/span&gt;&lt;span style=&quot;background-color: initial;&quot;&gt;抽取到某张牌的概率&lt;/span&gt;&lt;span style=&quot;background-color: initial;&quot;&gt;（&lt;/span&gt;&lt;span style=&quot;background-color: initial;&quot;&gt;Solver使用&lt;/span&gt;&lt;span style=&quot;background-color: initial;&quot;&gt;）&lt;/span&gt;&lt;span style=&quot;background-color: initial;&quot;&gt;&lt;br&gt;&lt;/span&gt;&lt;/p&gt;&lt;p style=&quot;margin: 0px 0px 0px 4px;&quot;&gt;&lt;br&gt;&lt;/p&gt;" style="verticalAlign=top;align=left;overflow=fill;html=1;whiteSpace=wrap;fillColor=#d5e8d4;strokeColor=#82b366;" parent="1" vertex="1">
          <mxGeometry x="800" y="1540" width="520" height="110" as="geometry" />
        </mxCell>
        <mxCell id="arHHOXSYV5D0Y9RjJXxl-62" style="edgeStyle=orthogonalEdgeStyle;rounded=0;orthogonalLoop=1;jettySize=auto;html=1;entryX=0.75;entryY=0;entryDx=0;entryDy=0;" parent="1" source="arHHOXSYV5D0Y9RjJXxl-61" target="arHHOXSYV5D0Y9RjJXxl-59" edge="1">
          <mxGeometry relative="1" as="geometry" />
        </mxCell>
        <mxCell id="arHHOXSYV5D0Y9RjJXxl-61" value="&lt;p style=&quot;margin:0px;margin-top:4px;text-align:center;&quot;&gt;&lt;b&gt;SRandomDeck&lt;/b&gt;&lt;/p&gt;&lt;p style=&quot;margin:0px;margin-top:4px;text-align:center;&quot;&gt;&lt;b&gt;随机卡池-根据概率发牌&lt;/b&gt;&lt;/p&gt;&lt;hr size=&quot;1&quot; style=&quot;border-style:solid;&quot;&gt;&lt;p style=&quot;margin:0px;margin-left:4px;&quot;&gt;&lt;span style=&quot;background-color: initial;&quot;&gt;&lt;span style=&quot;background-color: initial;&quot;&gt;+ &lt;/span&gt;&lt;span style=&quot;background-color: initial;&quot;&gt;probability_map:&lt;/span&gt;HashMap&amp;lt;&lt;span style=&quot;background-color: initial;&quot;&gt;ECard, float&lt;/span&gt;&lt;span style=&quot;background-color: initial;&quot;&gt;&amp;gt;&amp;nbsp;&lt;/span&gt;&lt;span style=&quot;background-color: initial;&quot;&gt;-&amp;nbsp;&amp;nbsp;&lt;/span&gt;&lt;span style=&quot;background-color: initial;&quot;&gt;抽取到某张牌的概率&lt;/span&gt;&lt;span style=&quot;background-color: initial;&quot;&gt;（&lt;/span&gt;&lt;span style=&quot;background-color: initial;&quot;&gt;Solver使用&lt;/span&gt;&lt;span style=&quot;background-color: initial;&quot;&gt;）&lt;/span&gt;&lt;/span&gt;&lt;br&gt;&lt;/p&gt;&lt;hr size=&quot;1&quot; style=&quot;border-style:solid;&quot;&gt;&lt;p style=&quot;margin:0px;margin-left:4px;&quot;&gt;+ new(&lt;span style=&quot;background-color: initial;&quot;&gt;): SDeck&lt;/span&gt;&lt;/p&gt;&lt;p style=&quot;margin:0px;margin-left:4px;&quot;&gt;+ default(): Self&lt;span style=&quot;background-color: initial;&quot;&gt;&lt;br&gt;&lt;/span&gt;&lt;/p&gt;&lt;p style=&quot;margin:0px;margin-left:4px;&quot;&gt;&lt;span style=&quot;background-color: initial;&quot;&gt;+&amp;nbsp;&lt;/span&gt;shuffle&lt;span style=&quot;background-color: initial;&quot;&gt;(&amp;amp;Self) - 重新洗牌 并且重置相关变量&lt;/span&gt;&lt;/p&gt;&lt;p style=&quot;margin:0px;margin-left:4px;&quot;&gt;&lt;span style=&quot;background-color: initial;&quot;&gt;+ draw(&amp;amp;mut Self): ECard - 抽一张牌 并且返回&lt;/span&gt;&lt;/p&gt;&lt;p style=&quot;margin:0px;margin-left:4px;&quot;&gt;&lt;span style=&quot;background-color: initial;&quot;&gt;+ draw_specific(&amp;amp;mut Self, ECard): Option&amp;lt;ECard&amp;gt; -&amp;nbsp;&lt;/span&gt;&lt;span style=&quot;background-color: initial;&quot;&gt;抽取特定卡牌&lt;/span&gt;&lt;span style=&quot;background-color: initial;&quot;&gt;（&lt;/span&gt;&lt;span style=&quot;background-color: initial;&quot;&gt;Solver使用&lt;/span&gt;&lt;span style=&quot;background-color: initial;&quot;&gt;）&lt;/span&gt;&lt;/p&gt;&lt;p style=&quot;margin:0px;margin-left:4px;&quot;&gt;&lt;span style=&quot;background-color: initial;&quot;&gt;+ get_&lt;/span&gt;&lt;span style=&quot;background-color: initial;&quot;&gt;probability_map&lt;/span&gt;&lt;span style=&quot;background-color: initial;&quot;&gt;(&amp;amp;Self)&lt;/span&gt;&lt;span style=&quot;background-color: initial;&quot;&gt;:&lt;/span&gt;&lt;span style=&quot;background-color: initial;&quot;&gt;HashMap&amp;lt;&lt;/span&gt;&lt;span style=&quot;background-color: initial;&quot;&gt;ECard, float&lt;/span&gt;&lt;span style=&quot;background-color: initial;&quot;&gt;&amp;gt;&amp;nbsp;&lt;/span&gt;&lt;span style=&quot;background-color: initial;&quot;&gt;-&amp;nbsp;&amp;nbsp;&lt;/span&gt;&lt;span style=&quot;background-color: initial;&quot;&gt;抽取到某张牌的概率&lt;/span&gt;&lt;span style=&quot;background-color: initial;&quot;&gt;（&lt;/span&gt;&lt;span style=&quot;background-color: initial;&quot;&gt;Solver使用&lt;/span&gt;&lt;span style=&quot;background-color: initial;&quot;&gt;）&lt;/span&gt;&lt;/p&gt;" style="verticalAlign=top;align=left;overflow=fill;html=1;whiteSpace=wrap;fillColor=#d5e8d4;strokeColor=#82b366;" parent="1" vertex="1">
          <mxGeometry x="1190" y="1200" width="460" height="180" as="geometry" />
        </mxCell>
        <mxCell id="arHHOXSYV5D0Y9RjJXxl-89" style="edgeStyle=orthogonalEdgeStyle;rounded=0;orthogonalLoop=1;jettySize=auto;html=1;exitX=0.5;exitY=1;exitDx=0;exitDy=0;entryX=0.75;entryY=0;entryDx=0;entryDy=0;" parent="1" source="arHHOXSYV5D0Y9RjJXxl-76" target="arHHOXSYV5D0Y9RjJXxl-54" edge="1">
          <mxGeometry relative="1" as="geometry" />
        </mxCell>
        <mxCell id="arHHOXSYV5D0Y9RjJXxl-76" value="&lt;p style=&quot;margin:0px;margin-top:4px;text-align:center;&quot;&gt;&lt;b&gt;SSolverPlayer&lt;/b&gt;&lt;/p&gt;&lt;p style=&quot;margin:0px;margin-top:4px;text-align:center;&quot;&gt;&lt;b&gt;Solver模拟用户策略&lt;/b&gt;&lt;/p&gt;&lt;hr size=&quot;1&quot; style=&quot;border-style:solid;&quot;&gt;&lt;p style=&quot;margin:0px;margin-left:4px;&quot;&gt;&lt;br&gt;&lt;/p&gt;&lt;hr size=&quot;1&quot; style=&quot;border-style:solid;&quot;&gt;&lt;p style=&quot;margin:0px;margin-left:4px;&quot;&gt;+ action(&lt;span style=&quot;background-color: initial;&quot;&gt;&amp;amp;STable): Vec&amp;lt;EPlayerAction&amp;gt; 返回当前状态下可能的Action集合&lt;/span&gt;&lt;/p&gt;" style="verticalAlign=top;align=left;overflow=fill;html=1;whiteSpace=wrap;fillColor=#dae8fc;strokeColor=#6c8ebf;" parent="1" vertex="1">
          <mxGeometry x="340" y="2300" width="240" height="120" as="geometry" />
        </mxCell>
        <mxCell id="arHHOXSYV5D0Y9RjJXxl-101" style="edgeStyle=orthogonalEdgeStyle;rounded=0;orthogonalLoop=1;jettySize=auto;html=1;entryX=0.5;entryY=0;entryDx=0;entryDy=0;" parent="1" source="arHHOXSYV5D0Y9RjJXxl-78" target="arHHOXSYV5D0Y9RjJXxl-76" edge="1">
          <mxGeometry relative="1" as="geometry" />
        </mxCell>
        <mxCell id="arHHOXSYV5D0Y9RjJXxl-102" style="edgeStyle=orthogonalEdgeStyle;rounded=0;orthogonalLoop=1;jettySize=auto;html=1;" parent="1" source="arHHOXSYV5D0Y9RjJXxl-78" target="arHHOXSYV5D0Y9RjJXxl-95" edge="1">
          <mxGeometry relative="1" as="geometry" />
        </mxCell>
        <mxCell id="arHHOXSYV5D0Y9RjJXxl-103" style="edgeStyle=orthogonalEdgeStyle;rounded=0;orthogonalLoop=1;jettySize=auto;html=1;entryX=0.5;entryY=0;entryDx=0;entryDy=0;" parent="1" source="arHHOXSYV5D0Y9RjJXxl-78" target="arHHOXSYV5D0Y9RjJXxl-80" edge="1">
          <mxGeometry relative="1" as="geometry" />
        </mxCell>
        <mxCell id="cuH9VREGBPQFMum01eds-5" style="edgeStyle=orthogonalEdgeStyle;rounded=0;orthogonalLoop=1;jettySize=auto;html=1;entryX=0.5;entryY=1;entryDx=0;entryDy=0;" edge="1" parent="1" source="arHHOXSYV5D0Y9RjJXxl-78" target="arHHOXSYV5D0Y9RjJXxl-21">
          <mxGeometry relative="1" as="geometry" />
        </mxCell>
        <mxCell id="arHHOXSYV5D0Y9RjJXxl-78" value="&lt;p style=&quot;margin:0px;margin-top:4px;text-align:center;&quot;&gt;&lt;b&gt;EPlayerAction&lt;/b&gt;&lt;/p&gt;&lt;hr size=&quot;1&quot; style=&quot;border-style:solid;&quot;&gt;&lt;p style=&quot;margin: 0px 0px 0px 4px;&quot;&gt;&lt;span style=&quot;background-color: initial;&quot;&gt;+ Bet(usize)&lt;/span&gt;&lt;/p&gt;&lt;p style=&quot;margin: 0px 0px 0px 4px;&quot;&gt;&lt;span style=&quot;background-color: initial;&quot;&gt;+&amp;nbsp;&lt;/span&gt;&lt;span style=&quot;background-color: initial;&quot;&gt;BuyInsurance(usize)&lt;/span&gt;&lt;/p&gt;&lt;p style=&quot;margin: 0px 0px 0px 4px;&quot;&gt;&lt;span style=&quot;background-color: initial;&quot;&gt;+ Split(bool)&lt;/span&gt;&lt;/p&gt;&lt;p style=&quot;margin: 0px 0px 0px 4px;&quot;&gt;&lt;span style=&quot;background-color: initial;&quot;&gt;+ DoubleDown(bool)&lt;/span&gt;&lt;/p&gt;&lt;p style=&quot;margin: 0px 0px 0px 4px;&quot;&gt;&lt;span style=&quot;background-color: initial;&quot;&gt;+ Hit&lt;/span&gt;&lt;/p&gt;&lt;p style=&quot;margin: 0px 0px 0px 4px;&quot;&gt;&lt;span style=&quot;background-color: initial;&quot;&gt;+ Stand&lt;/span&gt;&lt;/p&gt;&lt;p style=&quot;margin: 0px 0px 0px 4px;&quot;&gt;&lt;br&gt;&lt;/p&gt;" style="verticalAlign=top;align=left;overflow=fill;html=1;whiteSpace=wrap;fillColor=#dae8fc;strokeColor=#6c8ebf;" parent="1" vertex="1">
          <mxGeometry x="702.5" y="2150" width="130" height="122" as="geometry" />
        </mxCell>
        <mxCell id="arHHOXSYV5D0Y9RjJXxl-93" style="edgeStyle=orthogonalEdgeStyle;rounded=0;orthogonalLoop=1;jettySize=auto;html=1;entryX=0.5;entryY=0;entryDx=0;entryDy=0;" parent="1" source="arHHOXSYV5D0Y9RjJXxl-80" target="arHHOXSYV5D0Y9RjJXxl-91" edge="1">
          <mxGeometry relative="1" as="geometry" />
        </mxCell>
        <mxCell id="arHHOXSYV5D0Y9RjJXxl-80" value="&lt;p style=&quot;margin:0px;margin-top:4px;text-align:center;&quot;&gt;&lt;b&gt;SUiPlayer&lt;/b&gt;&lt;/p&gt;&lt;p style=&quot;margin:0px;margin-top:4px;text-align:center;&quot;&gt;&lt;b style=&quot;background-color: initial;&quot;&gt;实际用户-通过UI操作完成Action&lt;/b&gt;&lt;/p&gt;&lt;hr size=&quot;1&quot; style=&quot;border-style:solid;&quot;&gt;&lt;p style=&quot;margin:0px;margin-left:4px;&quot;&gt;+ channel:channel - 与UI通信&lt;/p&gt;&lt;hr size=&quot;1&quot; style=&quot;border-style:solid;&quot;&gt;&lt;p style=&quot;margin:0px;margin-left:4px;&quot;&gt;+ action(&amp;amp;Self, &amp;amp;STable): EPlayerAction&lt;br&gt;&lt;/p&gt;" style="verticalAlign=top;align=left;overflow=fill;html=1;whiteSpace=wrap;fillColor=#fff2cc;strokeColor=#d6b656;" parent="1" vertex="1">
          <mxGeometry x="940" y="2300" width="240" height="120" as="geometry" />
        </mxCell>
        <mxCell id="arHHOXSYV5D0Y9RjJXxl-99" style="edgeStyle=orthogonalEdgeStyle;rounded=0;orthogonalLoop=1;jettySize=auto;html=1;entryX=0.75;entryY=0;entryDx=0;entryDy=0;" parent="1" source="arHHOXSYV5D0Y9RjJXxl-84" target="arHHOXSYV5D0Y9RjJXxl-80" edge="1">
          <mxGeometry relative="1" as="geometry" />
        </mxCell>
        <mxCell id="arHHOXSYV5D0Y9RjJXxl-84" value="&lt;p style=&quot;font-weight: 400; margin: 4px 0px 0px;&quot;&gt;&lt;b style=&quot;background-color: initial;&quot;&gt;UI交互&lt;/b&gt;&lt;br&gt;&lt;/p&gt;" style="swimlane;fontStyle=1;align=center;verticalAlign=top;childLayout=stackLayout;horizontal=1;startSize=50;horizontalStack=0;resizeParent=1;resizeParentMax=0;resizeLast=0;collapsible=1;marginBottom=0;whiteSpace=wrap;html=1;fillColor=#fff2cc;strokeColor=#d6b656;" parent="1" vertex="1">
          <mxGeometry x="1140" y="2060" width="280" height="160" as="geometry">
            <mxRectangle x="1030" y="1360" width="140" height="50" as="alternateBounds" />
          </mxGeometry>
        </mxCell>
        <mxCell id="arHHOXSYV5D0Y9RjJXxl-85" value="&lt;div&gt;&lt;span style=&quot;background-color: initial;&quot;&gt;TODO&lt;/span&gt;&lt;br&gt;&lt;/div&gt;" style="text;strokeColor=none;fillColor=none;align=left;verticalAlign=top;spacingLeft=4;spacingRight=4;overflow=hidden;rotatable=0;points=[[0,0.5],[1,0.5]];portConstraint=eastwest;whiteSpace=wrap;html=1;" parent="arHHOXSYV5D0Y9RjJXxl-84" vertex="1">
          <mxGeometry y="50" width="280" height="30" as="geometry" />
        </mxCell>
        <mxCell id="arHHOXSYV5D0Y9RjJXxl-86" value="" style="line;strokeWidth=1;fillColor=none;align=left;verticalAlign=middle;spacingTop=-1;spacingLeft=3;spacingRight=3;rotatable=0;labelPosition=right;points=[];portConstraint=eastwest;strokeColor=inherit;" parent="arHHOXSYV5D0Y9RjJXxl-84" vertex="1">
          <mxGeometry y="80" width="280" height="8" as="geometry" />
        </mxCell>
        <mxCell id="arHHOXSYV5D0Y9RjJXxl-87" value="TODO" style="text;strokeColor=none;fillColor=none;align=left;verticalAlign=top;spacingLeft=4;spacingRight=4;overflow=hidden;rotatable=0;points=[[0,0.5],[1,0.5]];portConstraint=eastwest;whiteSpace=wrap;html=1;" parent="arHHOXSYV5D0Y9RjJXxl-84" vertex="1">
          <mxGeometry y="88" width="280" height="72" as="geometry" />
        </mxCell>
        <mxCell id="arHHOXSYV5D0Y9RjJXxl-91" value="&lt;p style=&quot;margin:0px;margin-top:4px;text-align:center;&quot;&gt;&lt;b&gt;SGame（普通牌局）&lt;/b&gt;&lt;/p&gt;&lt;hr size=&quot;1&quot; style=&quot;border-style:solid;&quot;&gt;&lt;p style=&quot;margin:0px;margin-left:4px;&quot;&gt;&lt;span style=&quot;background-color: initial;&quot;&gt;+ table: STable&lt;/span&gt;&lt;br&gt;&lt;/p&gt;&lt;p style=&quot;margin: 0px 0px 0px 4px;&quot;&gt;+ palyer: SUiPlayer&lt;/p&gt;&lt;hr size=&quot;1&quot; style=&quot;border-style:solid;&quot;&gt;&lt;p style=&quot;margin:0px;margin-left:4px;&quot;&gt;+&lt;/p&gt;" style="verticalAlign=top;align=left;overflow=fill;html=1;whiteSpace=wrap;fillColor=#fff2cc;strokeColor=#d6b656;" parent="1" vertex="1">
          <mxGeometry x="1327" y="2370" width="260" height="120" as="geometry" />
        </mxCell>
        <mxCell id="arHHOXSYV5D0Y9RjJXxl-97" style="edgeStyle=orthogonalEdgeStyle;rounded=0;orthogonalLoop=1;jettySize=auto;html=1;exitX=0.5;exitY=1;exitDx=0;exitDy=0;" parent="1" source="arHHOXSYV5D0Y9RjJXxl-95" target="arHHOXSYV5D0Y9RjJXxl-42" edge="1">
          <mxGeometry relative="1" as="geometry" />
        </mxCell>
        <mxCell id="arHHOXSYV5D0Y9RjJXxl-95" value="&lt;p style=&quot;margin:0px;margin-top:4px;text-align:center;&quot;&gt;&lt;b&gt;SStrategyPlayer&lt;/b&gt;&lt;/p&gt;&lt;p style=&quot;margin:0px;margin-top:4px;text-align:center;&quot;&gt;&lt;b&gt;固定策略用户&lt;/b&gt;&lt;/p&gt;&lt;hr size=&quot;1&quot; style=&quot;border-style:solid;&quot;&gt;&lt;p style=&quot;margin:0px;margin-left:4px;&quot;&gt;&lt;br&gt;&lt;/p&gt;&lt;hr size=&quot;1&quot; style=&quot;border-style:solid;&quot;&gt;&lt;p style=&quot;margin:0px;margin-left:4px;&quot;&gt;+ action(&lt;span style=&quot;background-color: initial;&quot;&gt;&amp;amp;STable): EPlayerAction&lt;/span&gt;&lt;/p&gt;" style="verticalAlign=top;align=left;overflow=fill;html=1;whiteSpace=wrap;fillColor=#f8cecc;strokeColor=#b85450;" parent="1" vertex="1">
          <mxGeometry x="647.5" y="2300" width="240" height="120" as="geometry" />
        </mxCell>
        <mxCell id="arHHOXSYV5D0Y9RjJXxl-98" style="edgeStyle=orthogonalEdgeStyle;rounded=0;orthogonalLoop=1;jettySize=auto;html=1;exitX=0.75;exitY=1;exitDx=0;exitDy=0;entryX=0.781;entryY=0.013;entryDx=0;entryDy=0;entryPerimeter=0;jumpStyle=arc;" parent="1" source="arHHOXSYV5D0Y9RjJXxl-21" target="arHHOXSYV5D0Y9RjJXxl-42" edge="1">
          <mxGeometry relative="1" as="geometry" />
        </mxCell>
        <mxCell id="arHHOXSYV5D0Y9RjJXxl-108" style="edgeStyle=orthogonalEdgeStyle;rounded=0;orthogonalLoop=1;jettySize=auto;html=1;entryX=0;entryY=0.5;entryDx=0;entryDy=0;" parent="1" source="arHHOXSYV5D0Y9RjJXxl-106" target="Zoe6LWstfdoIp6qeAD0j-40" edge="1">
          <mxGeometry relative="1" as="geometry" />
        </mxCell>
        <mxCell id="arHHOXSYV5D0Y9RjJXxl-106" value="&lt;p style=&quot;margin:0px;margin-top:4px;text-align:center;&quot;&gt;&lt;b&gt;ECardPoint - 不包含JQK&lt;/b&gt;&lt;/p&gt;&lt;hr size=&quot;1&quot; style=&quot;border-style:solid;&quot;&gt;&lt;p style=&quot;margin: 0px 0px 0px 4px;&quot;&gt;+ One&lt;/p&gt;&lt;p style=&quot;margin: 0px 0px 0px 4px;&quot;&gt;+ Two&lt;/p&gt;&lt;p style=&quot;margin: 0px 0px 0px 4px;&quot;&gt;...&lt;/p&gt;&lt;p style=&quot;margin: 0px 0px 0px 4px;&quot;&gt;+ Ten&lt;/p&gt;&lt;hr style=&quot;border-style: solid;&quot; size=&quot;1&quot;&gt;&lt;p style=&quot;margin: 0px 0px 0px 4px;&quot;&gt;+ toEValue():&amp;nbsp;&lt;span style=&quot;background-color: initial;&quot;&gt;EValue&lt;/span&gt;&lt;/p&gt;" style="verticalAlign=top;align=left;overflow=fill;html=1;whiteSpace=wrap;fillColor=#d5e8d4;strokeColor=#82b366;" parent="1" vertex="1">
          <mxGeometry x="395" y="850" width="160" height="120" as="geometry" />
        </mxCell>
        <mxCell id="cuH9VREGBPQFMum01eds-43" style="edgeStyle=orthogonalEdgeStyle;rounded=0;orthogonalLoop=1;jettySize=auto;html=1;" edge="1" parent="1" source="cuH9VREGBPQFMum01eds-7" target="cuH9VREGBPQFMum01eds-78">
          <mxGeometry relative="1" as="geometry" />
        </mxCell>
        <mxCell id="cuH9VREGBPQFMum01eds-7" value="&lt;p style=&quot;margin:0px;margin-top:4px;text-align:center;&quot;&gt;Dealer明牌分布/单张牌分布&lt;/p&gt;&lt;hr size=&quot;1&quot; style=&quot;border-style:solid;&quot;&gt;&lt;p style=&quot;margin:0px;margin-left:4px;&quot;&gt;横轴-明牌的Card&lt;/p&gt;&lt;p style=&quot;margin:0px;margin-left:4px;&quot;&gt;纵轴/值-概率&lt;/p&gt;&lt;hr size=&quot;1&quot; style=&quot;border-style:solid;&quot;&gt;&lt;p style=&quot;margin:0px;margin-left:4px;&quot;&gt;&lt;br&gt;&lt;/p&gt;" style="verticalAlign=top;align=left;overflow=fill;html=1;whiteSpace=wrap;fillColor=#dae8fc;strokeColor=#6c8ebf;container=0;" vertex="1" parent="1">
          <mxGeometry x="1695" y="235" width="240" height="120" as="geometry" />
        </mxCell>
        <mxCell id="cuH9VREGBPQFMum01eds-23" style="edgeStyle=orthogonalEdgeStyle;rounded=0;orthogonalLoop=1;jettySize=auto;html=1;entryX=0;entryY=0.5;entryDx=0;entryDy=0;" edge="1" parent="1" source="cuH9VREGBPQFMum01eds-10" target="cuH9VREGBPQFMum01eds-17">
          <mxGeometry relative="1" as="geometry" />
        </mxCell>
        <mxCell id="cuH9VREGBPQFMum01eds-36" value="" style="edgeStyle=orthogonalEdgeStyle;rounded=0;orthogonalLoop=1;jettySize=auto;html=1;" edge="1" parent="1" source="cuH9VREGBPQFMum01eds-10" target="cuH9VREGBPQFMum01eds-17">
          <mxGeometry relative="1" as="geometry" />
        </mxCell>
        <mxCell id="cuH9VREGBPQFMum01eds-10" value="&lt;p style=&quot;margin:0px;margin-top:4px;text-align:center;&quot;&gt;Dealer各明牌的终态Value分布&lt;/p&gt;&lt;hr size=&quot;1&quot; style=&quot;border-style:solid;&quot;&gt;&lt;p style=&quot;margin: 0px 0px 0px 4px;&quot;&gt;横轴-明牌的Card&lt;/p&gt;&lt;p style=&quot;margin: 0px 0px 0px 4px;&quot;&gt;纵轴/值-概率&lt;/p&gt;&lt;hr size=&quot;1&quot; style=&quot;border-style:solid;&quot;&gt;&lt;p style=&quot;margin:0px;margin-left:4px;&quot;&gt;区分普通21点和Blackjack&lt;br&gt;&lt;/p&gt;&lt;p style=&quot;margin:0px;margin-left:4px;&quot;&gt;由于Dealer行动策略固定 可事先计算终态&lt;/p&gt;&lt;p style=&quot;margin:0px;margin-left:4px;&quot;&gt;&lt;span style=&quot;background-color: initial;&quot;&gt;Player行动策略不固定 因此无法事先计算终态&lt;/span&gt;&lt;br&gt;&lt;/p&gt;" style="verticalAlign=top;align=left;overflow=fill;html=1;whiteSpace=wrap;fillColor=#dae8fc;strokeColor=#6c8ebf;container=0;" vertex="1" parent="1">
          <mxGeometry x="1770" y="580" width="240" height="135" as="geometry" />
        </mxCell>
        <mxCell id="cuH9VREGBPQFMum01eds-11" value="&lt;p style=&quot;margin:0px;margin-top:4px;text-align:center;&quot;&gt;Player/Dealer两张Value分布&lt;br&gt;&lt;/p&gt;&lt;hr size=&quot;1&quot; style=&quot;border-style:solid;&quot;&gt;&lt;p style=&quot;margin:0px;margin-left:4px;&quot;&gt;横轴-&lt;span style=&quot;background-color: initial;&quot;&gt;Player&lt;/span&gt;&lt;span style=&quot;background-color: initial;&quot;&gt;两张Value&lt;/span&gt;&lt;/p&gt;&lt;p style=&quot;margin:0px;margin-left:4px;&quot;&gt;纵轴/值-概率&lt;/p&gt;&lt;hr size=&quot;1&quot; style=&quot;border-style:solid;&quot;&gt;&lt;p style=&quot;margin:0px;margin-left:4px;&quot;&gt;Value区分软/硬/combine&lt;/p&gt;" style="verticalAlign=top;align=left;overflow=fill;html=1;whiteSpace=wrap;fillColor=#dae8fc;strokeColor=#6c8ebf;container=0;" vertex="1" parent="1">
          <mxGeometry x="2050" y="840" width="240" height="120" as="geometry" />
        </mxCell>
        <mxCell id="cuH9VREGBPQFMum01eds-31" style="edgeStyle=orthogonalEdgeStyle;rounded=0;orthogonalLoop=1;jettySize=auto;html=1;exitX=1;exitY=0.5;exitDx=0;exitDy=0;" edge="1" parent="1" source="cuH9VREGBPQFMum01eds-12" target="cuH9VREGBPQFMum01eds-15">
          <mxGeometry relative="1" as="geometry" />
        </mxCell>
        <mxCell id="cuH9VREGBPQFMum01eds-67" style="edgeStyle=orthogonalEdgeStyle;rounded=0;orthogonalLoop=1;jettySize=auto;html=1;exitX=0.5;exitY=1;exitDx=0;exitDy=0;entryX=0.75;entryY=0;entryDx=0;entryDy=0;" edge="1" parent="1" source="cuH9VREGBPQFMum01eds-12" target="cuH9VREGBPQFMum01eds-10">
          <mxGeometry relative="1" as="geometry" />
        </mxCell>
        <mxCell id="cuH9VREGBPQFMum01eds-12" value="&lt;p style=&quot;margin:0px;margin-top:4px;text-align:center;&quot;&gt;&lt;span style=&quot;background-color: initial;&quot;&gt;Player/Dealer&lt;/span&gt;不同Value的仅一次hit分布&lt;br&gt;&lt;/p&gt;&lt;hr size=&quot;1&quot; style=&quot;border-style:solid;&quot;&gt;&lt;p style=&quot;margin:0px;margin-left:4px;&quot;&gt;横轴-hit后的Value&lt;/p&gt;&lt;p style=&quot;margin:0px;margin-left:4px;&quot;&gt;纵轴-hit前的Value&lt;/p&gt;&lt;p style=&quot;margin:0px;margin-left:4px;&quot;&gt;值：概率&lt;/p&gt;&lt;hr size=&quot;1&quot; style=&quot;border-style:solid;&quot;&gt;&lt;p style=&quot;margin:0px;margin-left:4px;&quot;&gt;Value区分软/硬/combine&lt;br&gt;&lt;/p&gt;&lt;p style=&quot;margin:0px;margin-left:4px;&quot;&gt;DoubleDown可视为仅一次hit&lt;/p&gt;" style="verticalAlign=top;align=left;overflow=fill;html=1;whiteSpace=wrap;fillColor=#dae8fc;strokeColor=#6c8ebf;container=0;" vertex="1" parent="1">
          <mxGeometry x="2035" y="230" width="240" height="120" as="geometry" />
        </mxCell>
        <mxCell id="cuH9VREGBPQFMum01eds-21" style="edgeStyle=orthogonalEdgeStyle;rounded=0;orthogonalLoop=1;jettySize=auto;html=1;" edge="1" parent="1" source="cuH9VREGBPQFMum01eds-14" target="cuH9VREGBPQFMum01eds-11">
          <mxGeometry relative="1" as="geometry" />
        </mxCell>
        <mxCell id="cuH9VREGBPQFMum01eds-75" style="edgeStyle=orthogonalEdgeStyle;rounded=0;orthogonalLoop=1;jettySize=auto;html=1;entryX=0.5;entryY=0;entryDx=0;entryDy=0;" edge="1" parent="1" source="cuH9VREGBPQFMum01eds-14" target="cuH9VREGBPQFMum01eds-73">
          <mxGeometry relative="1" as="geometry" />
        </mxCell>
        <mxCell id="cuH9VREGBPQFMum01eds-14" value="&lt;p style=&quot;margin:0px;margin-top:4px;text-align:center;&quot;&gt;Player/Dealer两张组合分布&lt;br&gt;&lt;/p&gt;&lt;hr size=&quot;1&quot; style=&quot;border-style:solid;&quot;&gt;&lt;p style=&quot;margin:0px;margin-left:4px;&quot;&gt;横轴-较小数&lt;/p&gt;&lt;p style=&quot;margin:0px;margin-left:4px;&quot;&gt;纵轴-较大数&lt;/p&gt;&lt;p style=&quot;margin:0px;margin-left:4px;&quot;&gt;值-概率&lt;/p&gt;&lt;hr size=&quot;1&quot; style=&quot;border-style:solid;&quot;&gt;&lt;p style=&quot;margin:0px;margin-left:4px;&quot;&gt;概率=抽小数概率*抽大数概率*2&lt;/p&gt;" style="verticalAlign=top;align=left;overflow=fill;html=1;whiteSpace=wrap;fillColor=#dae8fc;strokeColor=#6c8ebf;container=0;" vertex="1" parent="1">
          <mxGeometry x="1770" y="840" width="240" height="120" as="geometry" />
        </mxCell>
        <mxCell id="cuH9VREGBPQFMum01eds-82" style="edgeStyle=orthogonalEdgeStyle;rounded=0;orthogonalLoop=1;jettySize=auto;html=1;" edge="1" parent="1" source="cuH9VREGBPQFMum01eds-15" target="cuH9VREGBPQFMum01eds-62">
          <mxGeometry relative="1" as="geometry" />
        </mxCell>
        <mxCell id="cuH9VREGBPQFMum01eds-15" value="&lt;p style=&quot;margin:0px;margin-top:4px;text-align:center;&quot;&gt;Player各Value的仅一次Hit的期望&lt;br&gt;&lt;/p&gt;&lt;hr size=&quot;1&quot; style=&quot;border-style:solid;&quot;&gt;&lt;p style=&quot;margin: 0px 0px 0px 4px;&quot;&gt;横轴-hit前的value&lt;/p&gt;&lt;p style=&quot;margin: 0px 0px 0px 4px;&quot;&gt;纵轴-&lt;span style=&quot;background-color: initial;&quot;&gt;Dealer的明牌&lt;/span&gt;&lt;span style=&quot;background-color: initial;&quot;&gt;Card&lt;/span&gt;&lt;/p&gt;&lt;p style=&quot;margin: 0px 0px 0px 4px;&quot;&gt;值：期望&lt;/p&gt;&lt;hr size=&quot;1&quot; style=&quot;border-style:solid;&quot;&gt;&lt;p style=&quot;margin:0px;margin-left:4px;&quot;&gt;Value区分软/硬/combine&lt;br&gt;&lt;/p&gt;&lt;p style=&quot;margin:0px;margin-left:4px;&quot;&gt;DoubleDown可视为仅一次hit&lt;br&gt;&lt;/p&gt;" style="verticalAlign=top;align=left;overflow=fill;html=1;whiteSpace=wrap;fillColor=#dae8fc;strokeColor=#6c8ebf;container=0;" vertex="1" parent="1">
          <mxGeometry x="2180" y="407.5" width="240" height="120" as="geometry" />
        </mxCell>
        <mxCell id="cuH9VREGBPQFMum01eds-50" style="edgeStyle=orthogonalEdgeStyle;rounded=0;orthogonalLoop=1;jettySize=auto;html=1;entryX=0.5;entryY=1;entryDx=0;entryDy=0;exitX=0.5;exitY=0;exitDx=0;exitDy=0;" edge="1" parent="1" source="cuH9VREGBPQFMum01eds-17" target="cuH9VREGBPQFMum01eds-15">
          <mxGeometry relative="1" as="geometry" />
        </mxCell>
        <mxCell id="cuH9VREGBPQFMum01eds-84" style="edgeStyle=orthogonalEdgeStyle;rounded=0;orthogonalLoop=1;jettySize=auto;html=1;entryX=0.5;entryY=1;entryDx=0;entryDy=0;" edge="1" parent="1" source="cuH9VREGBPQFMum01eds-17" target="cuH9VREGBPQFMum01eds-62">
          <mxGeometry relative="1" as="geometry" />
        </mxCell>
        <mxCell id="cuH9VREGBPQFMum01eds-17" value="&lt;p style=&quot;margin:0px;margin-top:4px;text-align:center;&quot;&gt;&lt;span style=&quot;background-color: initial;&quot;&gt;面对Dealer各明牌时&lt;/span&gt;&lt;/p&gt;&lt;p style=&quot;margin:0px;margin-top:4px;text-align:center;&quot;&gt;&lt;span style=&quot;background-color: initial;&quot;&gt;Player所有Value&lt;/span&gt;&lt;span style=&quot;background-color: initial;&quot;&gt;的stand期望&lt;/span&gt;&lt;/p&gt;&lt;hr size=&quot;1&quot; style=&quot;border-style:solid;&quot;&gt;&lt;p style=&quot;margin:0px;margin-left:4px;&quot;&gt;横轴-Player Value&lt;/p&gt;&lt;p style=&quot;margin:0px;margin-left:4px;&quot;&gt;纵轴-Dealer的明牌Card&lt;/p&gt;&lt;p style=&quot;margin:0px;margin-left:4px;&quot;&gt;值：期望&lt;br&gt;&lt;/p&gt;&lt;hr size=&quot;1&quot; style=&quot;border-style:solid;&quot;&gt;&lt;p style=&quot;margin:0px;margin-left:4px;&quot;&gt;Value不区分软硬&lt;br&gt;&lt;/p&gt;&lt;p style=&quot;margin:0px;margin-left:4px;&quot;&gt;简单比较Value大小即可&lt;/p&gt;" style="verticalAlign=top;align=left;overflow=fill;html=1;whiteSpace=wrap;fillColor=#dae8fc;strokeColor=#6c8ebf;container=0;" vertex="1" parent="1">
          <mxGeometry x="2180" y="580" width="240" height="135" as="geometry" />
        </mxCell>
        <mxCell id="cuH9VREGBPQFMum01eds-89" style="edgeStyle=orthogonalEdgeStyle;rounded=0;orthogonalLoop=1;jettySize=auto;html=1;" edge="1" parent="1" source="cuH9VREGBPQFMum01eds-53" target="cuH9VREGBPQFMum01eds-88">
          <mxGeometry relative="1" as="geometry" />
        </mxCell>
        <mxCell id="cuH9VREGBPQFMum01eds-53" value="&lt;p style=&quot;margin:0px;margin-top:4px;text-align:center;&quot;&gt;Player DoubleDown期望&lt;br&gt;&lt;/p&gt;&lt;hr size=&quot;1&quot; style=&quot;border-style:solid;&quot;&gt;&lt;p style=&quot;margin:0px;margin-left:4px;&quot;&gt;横轴-&lt;span style=&quot;background-color: initial;&quot;&gt;Player&amp;nbsp;&lt;/span&gt;&lt;span style=&quot;background-color: initial;&quot;&gt;Value&lt;/span&gt;&lt;br&gt;&lt;/p&gt;&lt;p style=&quot;margin:0px;margin-left:4px;&quot;&gt;纵轴-Dealer的明牌Card&lt;span style=&quot;background-color: initial;&quot;&gt;&lt;br&gt;&lt;/span&gt;&lt;/p&gt;&lt;p style=&quot;margin:0px;margin-left:4px;&quot;&gt;值：期望&lt;br&gt;&lt;/p&gt;&lt;hr size=&quot;1&quot; style=&quot;border-style:solid;&quot;&gt;&lt;p style=&quot;margin:0px;margin-left:4px;&quot;&gt;Value区分软/硬/combine&lt;br&gt;&lt;/p&gt;&lt;p style=&quot;margin:0px;margin-left:4px;&quot;&gt;仅在只有两张的时候有效&lt;/p&gt;&lt;p style=&quot;margin:0px;margin-left:4px;&quot;&gt;期望值为单次hit期望*2&lt;/p&gt;" style="verticalAlign=top;align=left;overflow=fill;html=1;whiteSpace=wrap;fillColor=#dae8fc;strokeColor=#6c8ebf;container=0;" vertex="1" parent="1">
          <mxGeometry x="2690" y="272.5" width="170" height="135" as="geometry" />
        </mxCell>
        <mxCell id="cuH9VREGBPQFMum01eds-91" style="edgeStyle=orthogonalEdgeStyle;rounded=0;orthogonalLoop=1;jettySize=auto;html=1;entryX=0;entryY=0.5;entryDx=0;entryDy=0;" edge="1" parent="1" source="cuH9VREGBPQFMum01eds-55" target="cuH9VREGBPQFMum01eds-90">
          <mxGeometry relative="1" as="geometry" />
        </mxCell>
        <mxCell id="cuH9VREGBPQFMum01eds-55" value="&lt;p style=&quot;margin:0px;margin-top:4px;text-align:center;&quot;&gt;Player(对子组合)Split期望&lt;br&gt;&lt;/p&gt;&lt;hr size=&quot;1&quot; style=&quot;border-style:solid;&quot;&gt;&lt;p style=&quot;margin:0px;margin-left:4px;&quot;&gt;横轴-&lt;span style=&quot;background-color: initial;&quot;&gt;Player&amp;nbsp;&lt;/span&gt;&lt;span style=&quot;background-color: initial;&quot;&gt;Value&lt;/span&gt;&lt;/p&gt;&lt;p style=&quot;margin:0px;margin-left:4px;&quot;&gt;纵轴/值-期望&lt;/p&gt;&lt;hr size=&quot;1&quot; style=&quot;border-style:solid;&quot;&gt;&lt;p style=&quot;margin:0px;margin-left:4px;&quot;&gt;直接复制前表&lt;/p&gt;&lt;p style=&quot;margin:0px;margin-left:4px;&quot;&gt;仅在只有一对的时候有效&lt;/p&gt;" style="verticalAlign=top;align=left;overflow=fill;html=1;whiteSpace=wrap;fillColor=#dae8fc;strokeColor=#6c8ebf;container=0;" vertex="1" parent="1">
          <mxGeometry x="2690" y="540" width="170" height="120" as="geometry" />
        </mxCell>
        <mxCell id="cuH9VREGBPQFMum01eds-85" style="edgeStyle=orthogonalEdgeStyle;rounded=0;orthogonalLoop=1;jettySize=auto;html=1;" edge="1" parent="1" source="cuH9VREGBPQFMum01eds-62" target="cuH9VREGBPQFMum01eds-55">
          <mxGeometry relative="1" as="geometry" />
        </mxCell>
        <mxCell id="cuH9VREGBPQFMum01eds-86" style="edgeStyle=orthogonalEdgeStyle;rounded=0;orthogonalLoop=1;jettySize=auto;html=1;entryX=0.5;entryY=1;entryDx=0;entryDy=0;" edge="1" parent="1" source="cuH9VREGBPQFMum01eds-62" target="cuH9VREGBPQFMum01eds-53">
          <mxGeometry relative="1" as="geometry" />
        </mxCell>
        <mxCell id="cuH9VREGBPQFMum01eds-62" value="&lt;p style=&quot;margin:0px;margin-top:4px;text-align:center;&quot;&gt;Hit/Stand策略&lt;br&gt;&lt;/p&gt;&lt;hr size=&quot;1&quot; style=&quot;border-style:solid;&quot;&gt;&lt;p style=&quot;margin:0px;margin-left:4px;&quot;&gt;&lt;br&gt;&lt;/p&gt;&lt;hr size=&quot;1&quot; style=&quot;border-style:solid;&quot;&gt;&lt;p style=&quot;margin:0px;margin-left:4px;&quot;&gt;&lt;br&gt;&lt;/p&gt;" style="verticalAlign=top;align=left;overflow=fill;html=1;whiteSpace=wrap;fillColor=#dae8fc;strokeColor=#6c8ebf;container=0;" vertex="1" parent="1">
          <mxGeometry x="2490" y="406.25" width="160" height="121.25" as="geometry" />
        </mxCell>
        <mxCell id="cuH9VREGBPQFMum01eds-74" style="edgeStyle=orthogonalEdgeStyle;rounded=0;orthogonalLoop=1;jettySize=auto;html=1;" edge="1" parent="1" source="cuH9VREGBPQFMum01eds-72" target="cuH9VREGBPQFMum01eds-73">
          <mxGeometry relative="1" as="geometry" />
        </mxCell>
        <mxCell id="cuH9VREGBPQFMum01eds-72" value="&lt;p style=&quot;margin:0px;margin-top:4px;text-align:center;&quot;&gt;静态策略&lt;br&gt;&lt;/p&gt;&lt;hr size=&quot;1&quot; style=&quot;border-style:solid;&quot;&gt;&lt;p style=&quot;margin:0px;margin-left:4px;&quot;&gt;&lt;br&gt;&lt;/p&gt;&lt;hr size=&quot;1&quot; style=&quot;border-style:solid;&quot;&gt;&lt;p style=&quot;margin:0px;margin-left:4px;&quot;&gt;&lt;br&gt;&lt;/p&gt;" style="verticalAlign=top;align=left;overflow=fill;html=1;whiteSpace=wrap;fillColor=#dae8fc;strokeColor=#6c8ebf;container=0;" vertex="1" parent="1">
          <mxGeometry x="2050" y="1010" width="240" height="120" as="geometry" />
        </mxCell>
        <mxCell id="cuH9VREGBPQFMum01eds-77" style="edgeStyle=orthogonalEdgeStyle;rounded=0;orthogonalLoop=1;jettySize=auto;html=1;entryX=0.5;entryY=0;entryDx=0;entryDy=0;" edge="1" parent="1" source="cuH9VREGBPQFMum01eds-73" target="cuH9VREGBPQFMum01eds-76">
          <mxGeometry relative="1" as="geometry" />
        </mxCell>
        <mxCell id="cuH9VREGBPQFMum01eds-73" value="&lt;p style=&quot;margin:0px;margin-top:4px;text-align:center;&quot;&gt;各action期望&lt;br&gt;&lt;/p&gt;&lt;hr size=&quot;1&quot; style=&quot;border-style:solid;&quot;&gt;&lt;p style=&quot;margin:0px;margin-left:4px;&quot;&gt;&lt;br&gt;&lt;/p&gt;&lt;hr size=&quot;1&quot; style=&quot;border-style:solid;&quot;&gt;&lt;p style=&quot;margin:0px;margin-left:4px;&quot;&gt;&lt;br&gt;&lt;/p&gt;" style="verticalAlign=top;align=left;overflow=fill;html=1;whiteSpace=wrap;fillColor=#dae8fc;strokeColor=#6c8ebf;container=0;" vertex="1" parent="1">
          <mxGeometry x="1770" y="1010" width="240" height="120" as="geometry" />
        </mxCell>
        <mxCell id="cuH9VREGBPQFMum01eds-76" value="&lt;p style=&quot;margin:0px;margin-top:4px;text-align:center;&quot;&gt;总体期望&lt;br&gt;&lt;/p&gt;&lt;hr size=&quot;1&quot; style=&quot;border-style:solid;&quot;&gt;&lt;p style=&quot;margin:0px;margin-left:4px;&quot;&gt;&lt;br&gt;&lt;/p&gt;&lt;hr size=&quot;1&quot; style=&quot;border-style:solid;&quot;&gt;&lt;p style=&quot;margin:0px;margin-left:4px;&quot;&gt;&lt;br&gt;&lt;/p&gt;" style="verticalAlign=top;align=left;overflow=fill;html=1;whiteSpace=wrap;fillColor=#dae8fc;strokeColor=#6c8ebf;container=0;" vertex="1" parent="1">
          <mxGeometry x="1770" y="1180" width="240" height="120" as="geometry" />
        </mxCell>
        <mxCell id="cuH9VREGBPQFMum01eds-79" style="edgeStyle=orthogonalEdgeStyle;rounded=0;orthogonalLoop=1;jettySize=auto;html=1;" edge="1" parent="1" source="cuH9VREGBPQFMum01eds-78" target="cuH9VREGBPQFMum01eds-10">
          <mxGeometry relative="1" as="geometry" />
        </mxCell>
        <mxCell id="cuH9VREGBPQFMum01eds-78" value="&lt;p style=&quot;margin:0px;margin-top:4px;text-align:center;&quot;&gt;Dealer各Value的终态Value分布&lt;/p&gt;&lt;hr size=&quot;1&quot; style=&quot;border-style:solid;&quot;&gt;&lt;p style=&quot;margin: 0px 0px 0px 4px;&quot;&gt;横轴-Value&lt;/p&gt;&lt;p style=&quot;margin: 0px 0px 0px 4px;&quot;&gt;纵轴/值-概率&lt;/p&gt;&lt;hr size=&quot;1&quot; style=&quot;border-style:solid;&quot;&gt;&lt;p style=&quot;margin:0px;margin-left:4px;&quot;&gt;区分普通21点和Blackjack&lt;br&gt;&lt;/p&gt;&lt;p style=&quot;margin:0px;margin-left:4px;&quot;&gt;由于Dealer行动策略固定 可事先计算终态&lt;/p&gt;&lt;p style=&quot;margin:0px;margin-left:4px;&quot;&gt;&lt;span style=&quot;background-color: initial;&quot;&gt;Player行动策略不固定 因此无法事先计算终态&lt;/span&gt;&lt;br&gt;&lt;/p&gt;" style="verticalAlign=top;align=left;overflow=fill;html=1;whiteSpace=wrap;fillColor=#dae8fc;strokeColor=#6c8ebf;container=0;" vertex="1" parent="1">
          <mxGeometry x="1695" y="400" width="240" height="135" as="geometry" />
        </mxCell>
        <mxCell id="cuH9VREGBPQFMum01eds-88" value="&lt;p style=&quot;margin:0px;margin-top:4px;text-align:center;&quot;&gt;DoubleDown策略&lt;br&gt;&lt;/p&gt;&lt;hr size=&quot;1&quot; style=&quot;border-style:solid;&quot;&gt;&lt;p style=&quot;margin:0px;margin-left:4px;&quot;&gt;&lt;br&gt;&lt;/p&gt;&lt;hr size=&quot;1&quot; style=&quot;border-style:solid;&quot;&gt;&lt;p style=&quot;margin:0px;margin-left:4px;&quot;&gt;&lt;br&gt;&lt;/p&gt;" style="verticalAlign=top;align=left;overflow=fill;html=1;whiteSpace=wrap;fillColor=#dae8fc;strokeColor=#6c8ebf;container=0;" vertex="1" parent="1">
          <mxGeometry x="2940" y="280" width="140" height="120" as="geometry" />
        </mxCell>
        <mxCell id="cuH9VREGBPQFMum01eds-90" value="&lt;p style=&quot;margin:0px;margin-top:4px;text-align:center;&quot;&gt;Split策略&lt;br&gt;&lt;/p&gt;&lt;hr size=&quot;1&quot; style=&quot;border-style:solid;&quot;&gt;&lt;p style=&quot;margin:0px;margin-left:4px;&quot;&gt;&lt;br&gt;&lt;/p&gt;&lt;hr size=&quot;1&quot; style=&quot;border-style:solid;&quot;&gt;&lt;p style=&quot;margin:0px;margin-left:4px;&quot;&gt;&lt;br&gt;&lt;/p&gt;" style="verticalAlign=top;align=left;overflow=fill;html=1;whiteSpace=wrap;fillColor=#dae8fc;strokeColor=#6c8ebf;container=0;" vertex="1" parent="1">
          <mxGeometry x="2940" y="540" width="140" height="120" as="geometry" />
        </mxCell>
      </root>
    </mxGraphModel>
  </diagram>
</mxfile>
